<?xml version="1.0" encoding="utf-8"?>
<svg version="1.1" xmlns:xlink="http://www.w3.org/1999/xlink" width="116px" height="42px" xmlns="http://www.w3.org/2000/svg">
  <g transform="matrix(1 0 0 1 -798 -790 )">
    <path d="M 799 793  A 2 2 0 0 1 801 791 L 911 791  A 2 2 0 0 1 913 793 L 913 829  A 2 2 0 0 1 911 831 L 801 831  A 2 2 0 0 1 799 829 L 799 793  Z " fill-rule="nonzero" fill="#ffffff" stroke="none" fill-opacity="0" />
    <path d="M 798.5 793  A 2.5 2.5 0 0 1 801 790.5 L 911 790.5  A 2.5 2.5 0 0 1 913.5 793 L 913.5 829  A 2.5 2.5 0 0 1 911 831.5 L 801 831.5  A 2.5 2.5 0 0 1 798.5 829 L 798.5 793  Z " stroke-width="1" stroke="#00ccaa" fill="none" stroke-opacity="0.498039215686275" />
  </g>
</svg>