<?xml version="1.0" encoding="utf-8"?>
<svg version="1.1" xmlns:xlink="http://www.w3.org/1999/xlink" width="240px" height="42px" xmlns="http://www.w3.org/2000/svg">
  <g transform="matrix(1 0 0 1 -529 -1052 )">
    <path d="M 530 1055  A 2 2 0 0 1 532 1053 L 766 1053  A 2 2 0 0 1 768 1055 L 768 1091  A 2 2 0 0 1 766 1093 L 532 1093  A 2 2 0 0 1 530 1091 L 530 1055  Z " fill-rule="nonzero" fill="#ffffff" stroke="none" fill-opacity="0" />
    <path d="M 529.5 1055  A 2.5 2.5 0 0 1 532 1052.5 L 766 1052.5  A 2.5 2.5 0 0 1 768.5 1055 L 768.5 1091  A 2.5 2.5 0 0 1 766 1093.5 L 532 1093.5  A 2.5 2.5 0 0 1 529.5 1091 L 529.5 1055  Z " stroke-width="1" stroke-dasharray="9,4" stroke="#cccccc" fill="none" stroke-dashoffset="0.5" />
  </g>
</svg>