<?xml version="1.0" encoding="utf-8"?>
<svg version="1.1" xmlns:xlink="http://www.w3.org/1999/xlink" width="48px" height="43px" xmlns="http://www.w3.org/2000/svg">
  <g transform="matrix(1 0 0 1 -16 -124 )">
    <path d="M 13.3333333333333 32.25  L 13.3333333333333 34.9375  L 18.6666666666667 34.9375  L 18.6666666666667 32.25  L 13.3333333333333 32.25  Z M 18.6666666666667 21.5  C 18.6666666666667 20.0134765625  17.475 18.8125  16 18.8125  C 14.525 18.8125  13.3333333333333 20.0134765625  13.3333333333333 21.5  C 13.3333333333333 22.9865234375  14.525 24.1875  16 24.1875  C 17.475 24.1875  18.6666666666667 22.9865234375  18.6666666666667 21.5  Z M 34.6666666666667 21.5  C 34.6666666666667 20.0134765625  33.475 18.8125  32 18.8125  C 30.525 18.8125  29.3333333333333 20.0134765625  29.3333333333333 21.5  C 29.3333333333333 22.9865234375  30.525 24.1875  32 24.1875  C 33.475 24.1875  34.6666666666667 22.9865234375  34.6666666666667 21.5  Z M 48 21.5  C 48 20.0134765625  46.8083333333333 18.8125  45.3333333333333 18.8125  L 42.6666666666667 18.8125  L 42.6666666666667 16.125  C 42.6666666666667 11.673828125  39.0833333333333 8.0625  34.6666666666667 8.0625  L 25.3333333333333 8.0625  L 25.3333333333333 1.34375  C 25.3333333333333 0.6046875  24.7333333333333 0  24 0  C 23.2666666666667 0  22.6666666666667 0.6046875  22.6666666666667 1.34375  L 22.6666666666667 8.0625  L 13.3333333333333 8.0625  C 8.91666666666667 8.0625  5.33333333333333 11.673828125  5.33333333333333 16.125  L 5.33333333333333 18.8125  L 2.66666666666667 18.8125  C 1.19166666666667 18.8125  0 20.0134765625  0 21.5  L 0 32.25  C 0 33.7365234375  1.19166666666667 34.9375  2.66666666666667 34.9375  L 5.33333333333333 34.9375  L 5.33333333333333 37.625  C 5.33333333333333 40.5896484375  7.725 43  10.6666666666667 43  L 37.3333333333333 43  C 40.275 43  42.6666666666667 40.5896484375  42.6666666666667 37.625  L 42.6666666666667 34.9375  L 45.3333333333333 34.9375  C 46.8083333333333 34.9375  48 33.7365234375  48 32.25  L 48 21.5  Z M 6 21.5  L 6 32.25  L 3 32.25  L 3 21.5  L 6 21.5  Z M 40 16.125  L 40 37.625  C 40 39.103125  38.8 40.3125  37.3333333333333 40  L 10.6666666666667 40  C 9.2 40.3125  8 39.103125  8 37.625  L 8 16.125  C 8 13.1603515625  10.3916666666667 10.75  13.3333333333333 11  L 34.6666666666667 11  C 37.6083333333333 10.75  40 13.1603515625  40 16.125  Z M 45 21.5  L 45 32.25  L 42 32.25  L 42 21.5  L 45 21.5  Z M 29.3333333333333 32.25  L 29.3333333333333 34.9375  L 34.6666666666667 34.9375  L 34.6666666666667 32.25  L 29.3333333333333 32.25  Z M 21.3333333333333 32.25  L 21.3333333333333 34.9375  L 26.6666666666667 34.9375  L 26.6666666666667 32.25  L 21.3333333333333 32.25  Z " fill-rule="nonzero" fill="#ffffff" stroke="none" transform="matrix(1 0 0 1 16 124 )" />
  </g>
</svg>