<?xml version="1.0" encoding="utf-8"?>
<svg version="1.1" xmlns:xlink="http://www.w3.org/1999/xlink" width="42px" height="48px" xmlns="http://www.w3.org/2000/svg">
  <g transform="matrix(1 0 0 1 -299 -411 )">
    <path d="M 42 39.6  C 42 32.64375  36.35625 27  29.4 27  C 26.709375 27  25.415625 28.5  21 28.5  C 16.584375 28.5  15.3 27  12.6 27  C 5.64375 27  0 32.64375  0 39.6  L 0 43.5  C 0 45.984375  2.015625 48  4.5 48  L 37.5 48  C 39.984375 48  42 45.984375  42 43.5  L 42 39.6  Z M 39 39.6  L 39 43.5  C 39 44.325  38.325 45  37.5 45  L 4.5 45  C 3.675 45  3 44.325  3 43.5  L 3 39.6  C 3 34.303125  7.303125 30  12.6 30  C 14.4375 30  16.265625 31.5  21 31.5  C 25.725 31.5  27.5625 30  29.4 30  C 34.696875 30  39 34.303125  39 39.6  Z M 9 12  C 9 18.628125  14.371875 24  21 24  C 27.628125 24  33 18.628125  33 12  C 33 5.371875  27.628125 0  21 0  C 14.371875 0  9 5.371875  9 12  Z M 12 12  C 12 7.040625  16.040625 3  21 3  C 25.959375 3  30 7.040625  30 12  C 30 16.959375  25.959375 21  21 21  C 16.040625 21  12 16.959375  12 12  Z " fill-rule="nonzero" fill="#000000" stroke="none" transform="matrix(1 0 0 1 299 411 )" />
  </g>
</svg>