<?xml version="1.0" encoding="utf-8"?>
<svg version="1.1" xmlns:xlink="http://www.w3.org/1999/xlink" width="24px" height="18px" xmlns="http://www.w3.org/2000/svg">
  <g transform="matrix(1 0 0 1 -19 -420 )">
    <path d="M 1.2 5.4  C 1.2 6.725625  2.274375 7.8  3.6 7.8  C 4.925625 7.8  6 6.725625  6 5.4  C 6 4.074375  4.925625 3  3.6 3  C 2.274375 3  1.2 4.074375  1.2 5.4  Z M 8.4 5.4  C 8.4 7.38825  10.01175 9  12 9  C 13.98825 9  15.6 7.38825  15.6 5.4  L 15.6 4.8  L 8.4 4.8  L 8.4 5.4  Z M 24 11.4  C 24 10.074375  22.925625 9  21.6 9  L 19.2 9  C 18.540375 9  17.94375 9.266625  17.509875 9.697125  C 19.02 10.524375  20.092125 12.02325  20.32725 13.8  L 22.8 13.8  C 23.462625 13.8  24 13.262625  24 12.6  L 24 11.4  Z M 3.67275 13.8  C 3.907875 12.02325  4.979625 10.52475  6.490125 9.697125  C 6.05625 9.266625  5.459625 9  4.8 9  L 2.4 9  C 1.074375 9  0 10.074375  0 11.4  L 0 12.6  C 0 13.262625  0.537375 13.8  1.2 13.8  L 3.67275 13.8  Z M 18 5.4  C 18 6.725625  19.074375 7.8  20.4 7.8  C 21.725625 7.8  22.8 6.725625  22.8 5.4  C 22.8 4.074375  21.725625 3  20.4 3  C 19.074375 3  18 4.074375  18 5.4  Z M 19.2 14.52  C 19.2 12.13425  17.26575 10.2  14.88 10.2  L 14.568375 10.2  C 13.786875 10.5735  12.9225 10.8  12 10.8  C 11.0775 10.8  10.2135 10.5735  9.431625 10.2  L 9.12 10.2  C 6.73425 10.2  4.8 12.13425  4.8 14.52  L 4.8 15.6  C 4.8 16.594125  5.605875 17.4  6.6 17.4  L 17.4 17.4  C 18.394125 17.4  19.2 16.594125  19.2 15.6  L 19.2 14.52  Z M 15.6 3.6  L 15.6 0.600000000000001  L 13.8 1.5  L 12 0.600000000000001  L 10.2 1.5  L 8.4 0.600000000000001  L 8.4 3.6  L 15.6 3.6  Z " fill-rule="nonzero" fill="#ff0033" stroke="none" transform="matrix(1 0 0 1 19 420 )" />
  </g>
</svg>