<?xml version="1.0" encoding="utf-8"?>
<svg version="1.1" xmlns:xlink="http://www.w3.org/1999/xlink" width="20px" height="16px" xmlns="http://www.w3.org/2000/svg">
  <g transform="matrix(1 0 0 1 -20 -277 )">
    <path d="M 19.75 10.34375  L 19.75 11.890625  C 19.75 12.1106796875  19.5716171875 12.2890625  19.3515625 12  L 0.5546875 12  C 0.3346328125 12.2890625  0.15625 12.1106796875  0.15625 11.890625  L 0.15625 10.34375  C 0.15625 10.1236953125  0.3346328125 9.9453125  0.5546875 10  L 19.3515625 10  C 19.5716171875 9.9453125  19.75 10.1236953125  19.75 10.34375  Z M 19.75 13.859375  L 19.75 15.40625  C 19.75 15.6263046875  19.5716171875 15.8046875  19.3515625 15.8046875  L 0.5546875 15.8046875  C 0.3346328125 15.8046875  0.15625 15.6263046875  0.15625 15.40625  L 0.15625 13.859375  C 0.15625 13.6393203125  0.3346328125 13.4609375  0.5546875 13.4609375  L 19.3515625 13.4609375  C 19.5716171875 13.4609375  19.75 13.6393203125  19.75 13.859375  Z M 19.75 0.453125  C 19.75 0.2330703125  19.5716171875 0.0546875  19.3515625 0  L 0.5546875 0  C 0.3346328125 0.0546875  0.15625 0.2330703125  0.15625 0.453125  L 0.15625 8.375  C 0.15625 8.5950546875  0.3346328125 8.7734375  0.5546875 8.7734375  L 19.3515625 8.7734375  C 19.5716171875 8.7734375  19.75 8.5950546875  19.75 8.375  L 19.75 0.453125  Z M 8.125 2.375  L 8.125 3.921875  C 8.125 4.1419296875  7.9466171875 4.3203125  7.7265625 4.3203125  L 2.4296875 4.3203125  C 2.2096328125 4.3203125  2.03125 4.1419296875  2.03125 3.921875  L 2.03125 2.375  C 2.03125 2.1549453125  2.2096328125 1.9765625  2.4296875 1.9765625  L 7.7265625 1.9765625  C 7.9466171875 1.9765625  8.125 2.1549453125  8.125 2.375  Z " fill-rule="nonzero" fill="#333333" stroke="none" transform="matrix(1 0 0 1 20 277 )" />
  </g>
</svg>