<?xml version="1.0" encoding="utf-8"?>
<svg version="1.1" xmlns:xlink="http://www.w3.org/1999/xlink" width="24px" height="19px" xmlns="http://www.w3.org/2000/svg">
  <g transform="matrix(1 0 0 1 -324 -15 )">
    <path d="M 24 3.5083932853717  C 24 3.65875299760192  23.8736842105263 3.78177458033573  23.719298245614 4  L 9.30994152046784 4  C 9.15555555555556 3.78177458033573  9.02923976608187 3.65875299760192  9.02923976608187 3.5083932853717  L 9.02923976608187 2.41486810551559  C 9.02923976608187 2.26450839328537  9.15555555555556 2.14148681055156  9.30994152046784 2.14148681055156  L 23.719298245614 2.14148681055156  C 23.8736842105263 2.14148681055156  24 2.26450839328537  24 2.41486810551559  L 24 3.5083932853717  Z M 23.719298245614 11  C 23.8736842105263 11.0719424460432  24 10.9489208633094  24 10.7985611510791  L 24 9.70503597122302  C 24 9.55467625899281  23.8736842105263 9.43165467625899  23.719298245614 9.43165467625899  L 9.30994152046784 9.43165467625899  C 9.15555555555556 9.43165467625899  9.02923976608187 9.55467625899281  9.02923976608187 9.70503597122302  L 9.02923976608187 10.7985611510791  C 9.02923976608187 10.9489208633094  9.15555555555556 11.0719424460432  9.30994152046784 11  L 23.719298245614 11  Z M 23.719298245614 18  C 23.8736842105263 18.3621103117506  24 18.2390887290168  24 18.0887290167866  L 24 16.9952038369305  C 24 16.8448441247002  23.8736842105263 16.7218225419664  23.719298245614 16.7218225419664  L 9.30994152046784 16.7218225419664  C 9.15555555555556 16.7218225419664  9.02923976608187 16.8448441247002  9.02923976608187 16.9952038369305  L 9.02923976608187 18.0887290167866  C 9.02923976608187 18.2390887290168  9.15555555555556 18.3621103117506  9.30994152046784 18  L 23.719298245614 18  Z M 4.91228070175439 17.3597122302158  C 4.91228070175439 16.4529976019185  4.17777777777778 15.7194244604317  3.24678362573099 15.7194244604317  C 2.31578947368421 15.7194244604317  1.5625730994152 16.4529976019185  1.5625730994152 17.3597122302158  C 1.5625730994152 18.2664268585132  2.31578947368421 19  3.24678362573099 19  C 4.17777777777778 19  4.91228070175439 18.2664268585132  4.91228070175439 17.3597122302158  Z M 8.0374269005848 1.32134292565947  C 8.26198830409357 1.10263788968825  8.26198830409357 0.756354916067146  8.04210526315789 0.54220623501199  L 7.69590643274854 0.205035971223022  C 7.47602339181287 -0.00911270983213426  7.12046783625731 -0.00911270983213426  6.90058479532164 0.205035971223022  L 3.2140350877193 3.8136690647482  L 1.41754385964912 2.06402877697842  C 1.19766081871345 1.84988009592326  0.842105263157895 1.84988009592326  0.622222222222222 2.06402877697842  L 0.205847953216374 2.46954436450839  C -0.0140350877192981 2.68369304556355  -0.0140350877192981 3.02997601918465  0.205847953216374 3.24412470023981  L 2.74619883040936 5.71822541966427  C 2.96608187134503 5.93237410071942  3.32163742690058 5.93237410071942  3.54152046783626 5.71822541966427  L 3.55087719298246 5.70911270983213  L 8.0374269005848 1.32134292565947  Z M 8.06549707602339 8.61151079136691  C 8.28070175438596 8.39280575539568  8.28070175438596 8.04652278177458  8.06081871345029 7.83237410071942  L 7.71461988304094 7.49520383693046  C 7.49473684210526 7.2810551558753  7.13918128654971 7.2810551558753  6.91929824561404 7.49520383693046  L 3.2327485380117 11.1038369304556  L 1.43625730994152 9.35419664268585  C 1.21637426900585 9.14004796163069  0.860818713450293 9.14004796163069  0.64093567251462 9.35419664268585  L 0.233918128654971 9.75971223021583  C 0.0140350877192982 9.97386091127098  0.0140350877192982 10.3201438848921  0.233918128654971 10.5342925659472  L 2.77426900584795 13.0083932853717  C 2.99415204678363 13.2225419664269  3.34970760233918 13.2225419664269  3.56959064327485 13.0083932853717  L 3.56023391812865 12.9992805755396  L 8.06549707602339 8.61151079136691  Z " fill-rule="nonzero" fill="#ffffff" stroke="none" transform="matrix(1 0 0 1 324 15 )" />
  </g>
</svg>