<?xml version="1.0" encoding="utf-8"?>
<svg version="1.1" xmlns:xlink="http://www.w3.org/1999/xlink" width="24px" height="6px" xmlns="http://www.w3.org/2000/svg">
  <g transform="matrix(1 0 0 1 -318 -21 )">
    <path d="M 12 0.75  C 13.24453125 0.75  14.25 1.75546875  14.25 3  C 14.25 4.24453125  13.24453125 5.25  12 5.25  C 10.75546875 5.25  9.75 4.24453125  9.75 3  C 9.75 1.75546875  10.75546875 0.75  12 0.75  Z M 22.6875 3  C 22.6875 1.75546875  21.68203125 0.75  20.4375 0.75  C 19.19296875 0.75  18.1875 1.75546875  18.1875 3  C 18.1875 4.24453125  19.19296875 5.25  20.4375 5.25  C 21.68203125 5.25  22.6875 4.24453125  22.6875 3  Z M 5.8125 3  C 5.8125 1.75546875  4.80703125 0.75  3.5625 0.75  C 2.31796875 0.75  1.3125 1.75546875  1.3125 3  C 1.3125 4.24453125  2.31796875 5.25  3.5625 5.25  C 4.80703125 5.25  5.8125 4.24453125  5.8125 3  Z " fill-rule="nonzero" fill="#ffffff" stroke="none" transform="matrix(1 0 0 1 318 21 )" />
  </g>
</svg>