<?xml version="1.0" encoding="utf-8"?>
<svg version="1.1" xmlns:xlink="http://www.w3.org/1999/xlink" width="24px" height="19px" xmlns="http://www.w3.org/2000/svg">
  <g transform="matrix(1 0 0 1 -18 -15 )">
    <path d="M 23.8341796875 14.309375  C 23.956640625 13.9234375  23.7896484375 13.4966796875  23.4408203125 13.2962890625  L 22.828515625 12.94375  C 22.858203125 12.6283203125  22.858203125 12.3091796875  22.828515625 11.99375  L 23.44453125 11.6412109375  C 23.7970703125 11.437109375  23.956640625 11.021484375  23.8341796875 10.6392578125  C 23.5669921875 9.7708984375  23.095703125 8.9544921875  22.472265625 8.2828125  C 22.19765625 7.9822265625  21.7560546875 7.9154296875  21.4072265625 8.11953125  L 20.794921875 8.4720703125  C 20.53515625 8.2865234375  20.260546875 8.126953125  19.97109375 7.9970703125  L 19.97109375 7.2919921875  C 19.97109375 6.8837890625  19.6927734375 6.538671875  19.295703125 6.449609375  C 18.4087890625 6.24921875  17.4662109375 6.24921875  16.579296875 6.449609375  C 16.1822265625 6.538671875  15.90390625 6.8875  15.90390625 7.2919921875  L 15.90390625 7.9970703125  C 15.614453125 8.126953125  15.33984375 8.2865234375  15.080078125 8.4720703125  L 14.4677734375 8.11953125  C 14.115234375 7.9154296875  13.67734375 7.9822265625  13.402734375 8.2828125  C 12.7830078125 8.9544921875  12.31171875 9.7708984375  12.0408203125 10.635546875  C 11.918359375 11.021484375  12.0853515625 11.44453125  12.4341796875 11.644921875  L 13.046484375 11.9974609375  C 13.016796875 12.312890625  13.016796875 12.63203125  13.046484375 12.9474609375  L 12.43046875 13.3  C 12.0853515625 13.500390625  11.918359375 13.9271484375  12.0408203125 14.3056640625  C 12.3080078125 15.1740234375  12.779296875 15.9904296875  13.402734375 16.662109375  C 13.67734375 16.958984375  14.115234375 17.02578125  14.4677734375 16.825390625  L 15.080078125 16.4728515625  C 15.33984375 16.6583984375  15.614453125 16.81796875  15.90390625 16.9478515625  L 15.90390625 17.6529296875  C 15.90390625 18.0611328125  16.1822265625 18.40625  16.579296875 18.4953125  C 17.024609375 18.5955078125  17.4810546875 18.64375  17.9375 18.64375  C 18.3939453125 18.64375  18.8541015625 18.5955078125  19.295703125 18.4953125  C 19.6927734375 18.40625  19.97109375 18.057421875  19.97109375 17.6529296875  L 19.97109375 16.9478515625  C 20.260546875 16.81796875  20.53515625 16.6583984375  20.794921875 16.4728515625  L 21.4072265625 16.825390625  C 21.7560546875 17.02578125  22.19765625 16.958984375  22.472265625 16.662109375  C 23.0919921875 15.9904296875  23.56328125 15.1740234375  23.8341796875 14.309375  Z M 21.5259765625 11.3740234375  C 21.7078125 12.3685546875  21.7189453125 12.5095703125  21.5259765625 13.5634765625  L 22.6169921875 14.1943359375  C 22.4240234375 14.725  22.1345703125 15.2259765625  21.7708984375 15.66015625  L 20.6798828125 15.029296875  C 19.8857421875 15.7083984375  19.770703125 15.7751953125  18.78359375 16.1240234375  L 18.78359375 17.3857421875  C 18.2232421875 17.4822265625  17.648046875 17.4822265625  17.09140625 17.3857421875  L 17.09140625 16.1240234375  C 16.0931640625 15.771484375  15.970703125 15.68984375  15.1951171875 15.029296875  L 14.1041015625 15.66015625  C 13.7404296875 15.222265625  13.4509765625 14.725  13.2580078125 14.1943359375  L 14.3490234375 13.5634765625  C 14.1671875 12.5689453125  14.1560546875 12.4279296875  14.3490234375 11.3740234375  L 13.2580078125 10.7431640625  C 13.4509765625 10.2125  13.7404296875 9.715234375  14.1041015625 9.27734375  L 15.1951171875 9.908203125  C 15.9892578125 9.2291015625  16.104296875 9.1623046875  17.09140625 8.8134765625  L 17.09140625 7.5517578125  C 17.6517578125 7.458984375  18.2306640625 7.458984375  18.78359375 7.5517578125  L 18.78359375 8.8134765625  C 19.778125 9.166015625  19.904296875 9.2439453125  20.6798828125 9.908203125  L 21.7708984375 9.27734375  C 22.1345703125 9.715234375  22.4240234375 10.2125  22.6169921875 10.7431640625  L 21.5259765625 11.3740234375  Z M 20.3310546875 12.46875  C 20.3310546875 11.1513671875  19.25859375 10.0751953125  17.9375 10.0751953125  C 16.61640625 10.0751953125  15.5439453125 11.1513671875  15.5439453125 12.46875  C 15.5439453125 13.7861328125  16.61640625 14.8623046875  17.9375 14.8623046875  C 19.25859375 14.8623046875  20.3310546875 13.7861328125  20.3310546875 12.46875  Z M 19.1435546875 12.46875  C 19.1435546875 13.1330078125  18.6017578125 13.6748046875  17.9375 13.6748046875  C 17.2732421875 13.6748046875  16.7314453125 13.1330078125  16.7314453125 12.46875  C 16.7314453125 11.8044921875  17.2732421875 11.2626953125  17.9375 11.2626953125  C 18.6017578125 11.2626953125  19.1435546875 11.8044921875  19.1435546875 12.46875  Z M 3.6875 4.75  C 3.6875 7.3736328125  5.8138671875 9.5  8.4375 9.5  C 11.0611328125 9.5  13.1875 7.3736328125  13.1875 4.75  C 13.1875 2.1263671875  11.0611328125 0  8.4375 0  C 5.8138671875 0  3.6875 2.1263671875  3.6875 4.75  Z M 4.875 4.75  C 4.875 2.7869140625  6.4744140625 1.1875  8.4375 1.1875  C 10.4005859375 1.1875  12 2.7869140625  12 4.75  C 12 6.7130859375  10.4005859375 8.3125  8.4375 8.3125  C 6.4744140625 8.3125  4.875 6.7130859375  4.875 4.75  Z M 12.7978515625 17.8125  L 1.90625 17.8125  C 1.5796875 17.8125  1.3125 17.5453125  1.3125 17.21875  L 1.3125 15.675  C 1.3125 13.5783203125  3.0158203125 11.875  5.1125 11.875  C 5.83984375 11.875  6.5634765625 12.46875  8.4375 12.46875  C 9.15 12.46875  9.84765625 12.3462890625  10.5341796875 12.1458984375  C 10.552734375 11.7154296875  10.6009765625 11.2923828125  10.6900390625 10.8841796875  C 10.359765625 10.984375  9.573046875 11.28125  8.4375 11.28125  C 6.6896484375 11.28125  6.18125 10.6875  5.1125 10.6875  C 2.358984375 10.6875  0.125 12.921484375  0.125 15.675  L 0.125 17.21875  C 0.125 18.2021484375  0.9228515625 19  1.90625 19  L 14.412109375 19  C 13.818359375 18.680859375  13.2765625 18.2763671875  12.7978515625 17.8125  Z " fill-rule="nonzero" fill="#ffffff" stroke="none" transform="matrix(1 0 0 1 18 15 )" />
  </g>
</svg>