<?xml version="1.0" encoding="utf-8"?>
<svg version="1.1" xmlns:xlink="http://www.w3.org/1999/xlink" width="24px" height="24px" xmlns="http://www.w3.org/2000/svg">
  <g transform="matrix(1 0 0 1 -14 -12 )">
    <path d="M 14 12  L 38 12  L 38 36  L 14 36  L 14 12  " fill-rule="nonzero" fill="#cccccc" stroke="none" />
    <path d="M 16 14  L 36 14  L 36 34  L 16 34  L 16 14  " fill-rule="nonzero" fill="#ffffff" stroke="none" />
    <path d="M 28.28 19.2  C 27.272 19.2  26.48 18.408  26.48 17.4  C 26.48 16.392  27.272 15.6  28.28 15.6  C 29.288 15.6  30.08 16.392  30.08 17.4  C 30.08 18.408  29.288 19.2  28.28 19.2  " fill-rule="nonzero" fill="#cccccc" stroke="none" />
    <path d="M 17 34  L 17 23.55  L 21.75 18.8  L 28.4 22.6  L 32.2 21.65  L 36 22.6  L 36 34  L 17 34  " fill-rule="nonzero" fill="#169bd5" stroke="none" />
  </g>
</svg>