<?xml version="1.0" encoding="utf-8"?>
<svg version="1.1" xmlns:xlink="http://www.w3.org/1999/xlink" width="24px" height="20px" xmlns="http://www.w3.org/2000/svg">
  <g transform="matrix(1 0 0 1 -21 -666 )">
    <path d="M 9.02923976608187 3.92609699769053  C 9.02923976608187 4.33256351039261  9.36608187134503 4.66512702078522  9.77777777777778 5  L 23.2514619883041 5  C 23.6631578947368 4.66512702078522  24 4.33256351039261  24 3.92609699769053  L 24 2.07852193995381  C 24 1.67205542725173  23.6631578947368 1.33949191685912  23.2514619883041 1.33949191685912  L 9.77777777777778 1.33949191685912  C 9.36608187134503 1.33949191685912  9.02923976608187 1.67205542725173  9.02923976608187 2.07852193995381  L 9.02923976608187 3.92609699769053  Z M 9.02923976608187 11.3163972286374  C 9.02923976608187 11.7228637413395  9.36608187134503 12.0554272517321  9.77777777777778 12  L 23.2514619883041 12  C 23.6631578947368 12.0554272517321  24 11.7228637413395  24 11.3163972286374  L 24 9.46882217090069  C 24 9.06235565819861  23.6631578947368 8.72979214780601  23.2514619883041 9  L 9.77777777777778 9  C 9.36608187134503 8.72979214780601  9.02923976608187 9.06235565819861  9.02923976608187 9.46882217090069  L 9.02923976608187 11.3163972286374  Z M 9.02923976608187 18.7066974595843  C 9.02923976608187 19.1131639722864  9.36608187134503 19.445727482679  9.77777777777778 19.445727482679  L 23.2514619883041 19.445727482679  C 23.6631578947368 19.445727482679  24 19.1131639722864  24 18.7066974595843  L 24 16.8591224018476  C 24 16.4526558891455  23.6631578947368 16.1200923787529  23.2514619883041 16  L 9.77777777777778 16  C 9.36608187134503 16.1200923787529  9.02923976608187 16.4526558891455  9.02923976608187 16.8591224018476  L 9.02923976608187 18.7066974595843  Z M 5.28654970760234 17.7829099307159  C 5.28654970760234 16.5588914549654  4.28070175438596 15.5658198614319  3.04093567251462 15.5658198614319  C 1.80116959064327 15.5658198614319  0.767251461988304 16.5588914549654  0.767251461988304 17.7829099307159  C 0.767251461988304 19.0069284064665  1.80116959064327 20  3.04093567251462 20  C 4.28070175438596 20  5.28654970760234 19.0069284064665  5.28654970760234 17.7829099307159  Z M 7.37309941520468 0.969976905311779  C 7.58830409356725 1.18706697459584  7.58830409356725 1.53810623556582  7.36842105263158 1.75519630484988  L 3.9906432748538 5.09006928406466  L 3.26081871345029 5.81062355658199  C 3.04093567251462 6.02771362586605  2.65730994152047 6.02771362586605  2.4374269005848 5.81062355658199  L 0.210526315789474 3.62124711316397  C -0.00935672514619884 3.40415704387991  -0.00935672514619884 3.05311778290993  0.210526315789474 2.83602771362587  L 0.945029239766082 2.1108545034642  C 1.16491228070175 1.89376443418014  1.52046783625731 1.89376443418014  1.74035087719298 2.1108545034642  L 2.80233918128655 3.13163972286374  L 5.78245614035088 0.207852193995382  C 6.00233918128655 -0.00923787528868291  6.35789473684211 -0.00923787528868291  6.57777777777778 0.207852193995382  L 7.37309941520468 0.969976905311779  Z M 7.37309941520468 8.34642032332564  C 7.58830409356725 8.55889145496536  7.58830409356725 8.90993071593534  7.36842105263158 9.1270207852194  L 3.9906432748538 12.4618937644342  L 3.25614035087719 13.1870669745958  C 3.03625730994152 13.4041570438799  2.65263157894737 13.4041570438799  2.4327485380117 13.1870669745958  L 0.210526315789474 10.9930715935335  C -0.00935672514619884 10.7759815242494  -0.00935672514619884 10.4249422632794  0.210526315789474 10.2078521939954  L 0.945029239766082 9.48267898383372  C 1.16491228070175 9.26558891454965  1.52046783625731 9.26558891454965  1.74035087719298 9.48267898383372  L 2.80233918128655 10.5034642032333  L 5.78245614035088 7.56120092378753  C 6.00233918128655 7.34411085450347  6.35789473684211 7.34411085450347  6.57777777777778 7.56120092378753  L 7.37309941520468 8.34642032332564  Z " fill-rule="nonzero" fill="#ff0033" stroke="none" transform="matrix(1 0 0 1 21 666 )" />
  </g>
</svg>