<?xml version="1.0" encoding="utf-8"?>
<svg version="1.1" xmlns:xlink="http://www.w3.org/1999/xlink" width="36px" height="32px" xmlns="http://www.w3.org/2000/svg">
  <g transform="matrix(1 0 0 1 -14 -150 )">
    <path d="M 10 24  L 10 26  L 14 26  L 14 24  L 10 24  Z M 14 16  C 14 14.89375  13.10625 14  12 14  C 10.89375 14  10 14.89375  10 16  C 10 17.10625  10.89375 18  12 18  C 13.10625 18  14 17.10625  14 16  Z M 26 16  C 26 14.89375  25.10625 14  24 14  C 22.89375 14  22 14.89375  22 16  C 22 17.10625  22.89375 18  24 18  C 25.10625 18  26 17.10625  26 16  Z M 36 16  C 36 14.89375  35.10625 14  34 14  L 32 14  L 32 12  C 32 8.6875  29.3125 6  26 6  L 19 6  L 19 1  C 19 0.45  18.55 0  18 0  C 17.45 0  17 0.45  17 1  L 17 6  L 10 6  C 6.6875 6  4 8.6875  4 12  L 4 14  L 2 14  C 0.89375 14  0 14.89375  0 16  L 0 24  C 0 25.10625  0.89375 26  2 26  L 4 26  L 4 28  C 4 30.20625  5.79375 32  8 32  L 28 32  C 30.20625 32  32 30.20625  32 28  L 32 26  L 34 26  C 35.10625 26  36 25.10625  36 24  L 36 16  Z M 4 16  L 4 24  L 2 24  L 2 16  L 4 16  Z M 30 12  L 30 28  C 30 29.1  29.1 30  28 30  L 8 30  C 6.9 30  6 29.1  6 28  L 6 12  C 6 9.79375  7.79375 8  10 8  L 26 8  C 28.20625 8  30 9.79375  30 12  Z M 34 16  L 34 24  L 32 24  L 32 16  L 34 16  Z M 22 24  L 22 26  L 26 26  L 26 24  L 22 24  Z M 16 24  L 16 26  L 20 26  L 20 24  L 16 24  Z " fill-rule="nonzero" fill="#ffffff" stroke="none" transform="matrix(1 0 0 1 14 150 )" />
  </g>
</svg>