<?xml version="1.0" encoding="utf-8"?>
<svg version="1.1" xmlns:xlink="http://www.w3.org/1999/xlink" width="20px" height="20px" xmlns="http://www.w3.org/2000/svg">
  <g transform="matrix(1 0 0 1 -12 -13 )">
    <path d="M 19.286796875 12.7647265625  C 19.4098046875 12.350703125  19.229375 11.9064453125  18.8553125 11.69046875  L 17.581484375 10.9550390625  C 17.6615625479462 10.3208511816456  17.6615625479462 9.67910975585439  17.581484375 9.044921875  L 18.8553125 8.3094921875  C 19.229375 8.0935546875  19.4098046875 7.6492578125  19.286796875 7.235234375  C 18.84875 5.7606640625  18.0690234375 4.433359375  17.0393359375 3.3448046875  C 16.7411328125 3.0295703125  16.265234375 2.9605859375  15.889453125 3.1775390625  L 14.6175 3.9118359375  C 14.1087278936178 3.5246386490318  13.5530299463001 3.2033394745039  12.9636328125 2.9555859375  L 12.9636328125 1.4862890625  C 12.9636328125 1.0515234375  12.6647265625 0.6736328125  12.2416015625 0.573515625  C 10.7711328125 0.2255078125  9.2291796875 0.22546875  7.7583984375 0.573515625  C 7.3353125 0.6736328125  7.0363671875 1.051484375  7.0363671875 1.4862890625  L 7.0363671875 2.9555859375  C 6.44696557870659 3.20333046662192  5.8912665322738 3.52463027664753  5.3825 3.9118359375  L 4.110546875 3.1775390625  C 3.7347265625 2.9605859375  3.258828125 3.0295703125  2.9606640625 3.3448046875  C 1.9309765625 4.433359375  1.15125 5.760703125  0.713203125 7.235234375  C 0.5901953125 7.6492578125  0.770625 8.093515625  1.1446875 8.3094921875  L 2.418515625 9.044921875  C 2.33843745205376 9.67910975585438  2.33843745205376 10.3208511816456  2.418515625 10.9550390625  L 1.1446875 11.69046875  C 0.770625 11.90640625  0.5901953125 12.350703125  0.713203125 12.7647265625  C 1.15125 14.2392578125  1.9309765625 15.5666015625  2.9606640625 16.65515625  C 3.2588671875 16.970390625  3.734765625 17.039375  4.110546875 16.8224609375  L 5.3825 16.0881640625  C 5.89126376234755 16.4753633889707  6.44696367983122 16.7966505776167  7.0363671875 17.044375  L 7.0363671875 18.513671875  C 7.0363671875 18.9484375  7.3352734375 19.326328125  7.7583984375 19.4264453125  C 9.22890625 19.774453125  10.7708203125 19.7744921875  12.2416015625 19.4264453125  C 12.6646875 19.326328125  12.9636328125 18.9484765625  12.9636328125 18.513671875  L 12.9636328125 17.044375  C 13.5530255057736 16.7966288079116  14.1087227669516 16.4753431550531  14.6175 16.0881640625  L 15.889453125 16.8224609375  C 16.265234375 17.0394140625  16.7411328125 16.9704296875  17.0393359375 16.65515625  C 18.0690234375 15.5666015625  18.84875 14.2392578125  19.286796875 12.7647265625  Z M 18.013515625 12.64765625  C 17.652578125 13.74015625  17.0674609375 14.751875  16.2975390625 15.6147265625  L 14.48859375 14.5701953125  C 13.434375 15.47140625  13.0605078125 15.6981640625  11.7136328125 16.1740625  L 11.7136328125 18.2630859375  C 10.5831119500712 18.4962895146252  9.41688804992879 18.4962895146252  8.2863671875 18.2630859375  L 8.2863671875 16.1740625  C 6.973046875 15.7100390625  6.5928125 15.4945703125  5.51140625 14.5701953125  L 3.7024609375 15.6147265625  C 2.9325390625 14.7518359375  2.347421875 13.74015625  1.986484375 12.6476171875  L 3.7962109375 11.6030859375  C 3.5409375 10.219609375  3.5408203125 9.7810546875  3.7962109375 8.396875  L 1.986484375 7.35234375  C 2.347421875 6.2598046875  2.932578125 5.2480859375  3.7024609375 4.3848046875  L 5.51140625 5.4301171875  C 6.5808203125 4.5147265625  6.9591796875 4.294765625  8.2863671875 3.825859375  L 8.2863671875 1.736875  C 9.41684821745195 1.50328148477426  10.5831517825481 1.50328148477426  11.7136328125 1.736875  L 11.7136328125 3.8258984375  C 13.0408984375 4.29484375  13.419296875 4.51484375  14.48859375 5.43015625  L 16.2975390625 4.38484375  C 17.067421875 5.2480859375  17.652578125 6.2598046875  18.013515625 7.3523828125  L 16.2037890625 8.3969140625  C 16.4591015625 9.7807421875  16.4591796875 10.2189453125  16.2037890625 11.603125  L 18.013515625 12.64765625  Z M 13.75 10  C 13.75 7.9322265625  12.0677734375 6.25  10 6.25  C 7.9322265625 6.25  6.25 7.9322265625  6.25 10  C 6.25 12.0677734375  7.9322265625 13.75  10 13.75  C 12.0677734375 13.75  13.75 12.0677734375  13.75 10  Z M 12.5 10  C 12.5 11.378515625  11.378515625 12.5  10 12.5  C 8.621484375 12.5  7.5 11.378515625  7.5 10  C 7.5 8.621484375  8.621484375 7.5  10 7.5  C 11.378515625 7.5  12.5 8.621484375  12.5 10  Z " fill-rule="nonzero" fill="#777777" stroke="none" transform="matrix(1 0 0 1 12 13 )" />
  </g>
</svg>