<?xml version="1.0" encoding="utf-8"?>
<svg version="1.1" xmlns:xlink="http://www.w3.org/1999/xlink" width="24px" height="18px" xmlns="http://www.w3.org/2000/svg">
  <g transform="matrix(1 0 0 1 -39 -29 )">
    <path d="M 24 2.25  C 24 1.00734375  22.99265625 0  21.75 0  L 2.25 0  C 1.00734375 0  0 1.00734375  0 2.25  L 0 15.75  C 0 16.99265625  1.00734375 18  2.25 18  L 21.75 18  C 22.99265625 18  24 16.99265625  24 15.75  L 24 2.25  Z M 22.5 2.25  L 22.5 15.75  C 22.5 16.16353125  22.16353125 16.5  21.75 16.5  L 2.25 16.5  C 1.83646875 16.5  1.5 16.16353125  1.5 15.75  L 1.5 2.25  C 1.5 1.83646875  1.83646875 1.5  2.25 1.5  L 21.75 1.5  C 22.16353125 1.5  22.5 1.83646875  22.5 2.25  Z M 2.625 5.25  C 2.625 6.69975  3.80025 7.875  5.25 7.875  C 6.69975 7.875  7.875 6.69975  7.875 5.25  C 7.875 3.80025  6.69975 2.625  5.25 2.625  C 3.80025 2.625  2.625 3.80025  2.625 5.25  Z M 4.125 5.25  C 4.125 4.62965625  4.62965625 4.125  5.25 4.125  C 5.87034375 4.125  6.375 4.62965625  6.375 5.25  C 6.375 5.87034375  5.87034375 6.375  5.25 6.375  C 4.62965625 6.375  4.125 5.87034375  4.125 5.25  Z M 16.545515625 5.204484375  C 16.10615625 4.765171875  15.39384375 4.765171875  14.954484375 5.204484375  L 10.5 9.659015625  L 9.045515625 8.20453125  C 8.60615625 7.765171875  7.89384375 7.765171875  7.45453125 8.20453125  L 3.32953125 12.32953125  C 3.11854088291487 12.5404930587174  3.00000369250223 12.8266347544931  3 13.125  L 3 14.4375  C 3 14.748140625  3.251859375 15  3.5625 15  L 20.4375 15  C 20.748140625 15  21 14.748140625  21 14.4375  L 21 10.125  C 21 9.826640625  20.881453125 9.54046875  20.670515625 9.329484375  L 16.545515625 5.204484375  Z M 19.5 10.28034375  L 19.5 13.5  L 4.5 13.5  L 4.5 13.28034375  L 8.25 9.53034375  L 10.5 11.78034375  L 15.75 6.53034375  L 19.5 10.28034375  Z " fill-rule="nonzero" fill="#ffffff" stroke="none" transform="matrix(1 0 0 1 39 29 )" />
  </g>
</svg>