<?xml version="1.0" encoding="utf-8"?>
<svg version="1.1" xmlns:xlink="http://www.w3.org/1999/xlink" width="24px" height="21px" xmlns="http://www.w3.org/2000/svg">
  <g transform="matrix(1 0 0 1 -184 -14 )">
    <path d="M 23.6443359375 10.623046875  C 23.886328125 10.3482421875  23.8658203125 9.933984375  23.5951171875 9.6919921875  L 21.1875 7.5673828125  L 21.1875 1.96875  C 21.1875 1.6078125  20.8921875 1.3125  20.53125 1.3125  L 17.90625 1.3125  C 17.5453125 1.3125  17.25 1.6078125  17.25 1.96875  L 17.25 4.0892578125  L 13.0951171875 0.4224609375  C 12.467578125 -0.139453125  11.5283203125 -0.139453125  10.90078125 0.4224609375  L 0.400781249999999 9.6919921875  C 0.130078124999999 9.933984375  0.109570312499999 10.3482421875  0.351562499999999 10.6189453125  L 1.229296875 11.5951171875  C 1.4712890625 11.8658203125  1.885546875 11.886328125  2.15625 11.6443359375  L 11.565234375 3.3509765625  C 11.811328125 3.13359375  12.1845703125 3.13359375  12.434765625 3.3509765625  L 21.8396484375 11.6484375  C 22.1103515625 11.8904296875  22.524609375 11.869921875  22.7666015625 11.59921875  L 23.6443359375 10.623046875  Z M 21.1875 12.7599609375  C 21.1875 12.7599609375  22.4958984375 13.969921875  12 4.716796875  C 1.5369140625 13.9453125  2.8125 12.7599609375  2.8125 12.7599609375  L 2.8125 20.34375  C 2.8125 20.7046875  3.1078125 21  3.46875 21  L 20.53125 21  C 20.8921875 21  21.1875 20.7046875  21.1875 20.34375  L 21.1875 12.7599609375  Z M 15.6955078125 11.6935546875  C 16.8275390625 12.6369140625  16.8890625 14.3267578125  15.880078125 15.348046875  L 12.4060546875 18.858984375  C 12.18046875 19.0845703125  11.81953125 19.0845703125  11.5939453125 18.858984375  L 8.119921875 15.348046875  C 7.1109375 14.3267578125  7.168359375 12.6369140625  8.2962890625 11.6935546875  C 9.2806640625 10.8732421875  10.744921875 11.0208984375  11.6431640625 11.9314453125  L 11.9958984375 12.28828125  L 12.3486328125 11.9314453125  C 13.2509765625 11.0208984375  14.715234375 10.8732421875  15.6955078125 11.6935546875  Z " fill-rule="nonzero" fill="#ffffff" stroke="none" transform="matrix(1 0 0 1 184 14 )" />
  </g>
</svg>