<?xml version="1.0" encoding="utf-8"?>
<svg version="1.1" xmlns:xlink="http://www.w3.org/1999/xlink" width="24px" height="5px" xmlns="http://www.w3.org/2000/svg">
  <g transform="matrix(1 0 0 1 -324 -22 )">
    <path d="M 12 0  C 13.3973684210526 0  14.5263157894737 1.1171875  14.5263157894737 2.5  C 14.5263157894737 3.8828125  13.3973684210526 5  12 5  C 10.6026315789474 5  9.47368421052632 3.8828125  9.47368421052632 2.5  C 9.47368421052632 1.1171875  10.6026315789474 0  12 0  Z M 24 2.5  C 24 1.1171875  22.8710526315789 0  21.4736842105263 0  C 20.0763157894737 0  18.9473684210526 1.1171875  18.9473684210526 2.5  C 18.9473684210526 3.8828125  20.0763157894737 5  21.4736842105263 5  C 22.8710526315789 5  24 3.8828125  24 2.5  Z M 5.05263157894737 2.5  C 5.05263157894737 1.1171875  3.92368421052632 0  2.52631578947368 0  C 1.12894736842105 0  0 1.1171875  0 2.5  C 0 3.8828125  1.12894736842105 5  2.52631578947368 5  C 3.92368421052632 5  5.05263157894737 3.8828125  5.05263157894737 2.5  Z " fill-rule="nonzero" fill="#00ccaa" stroke="none" transform="matrix(1 0 0 1 324 22 )" />
  </g>
</svg>