<?xml version="1.0" encoding="utf-8"?>
<svg version="1.1" xmlns:xlink="http://www.w3.org/1999/xlink" width="20px" height="20px" xmlns="http://www.w3.org/2000/svg">
  <g transform="matrix(1 0 0 1 -258 -13 )">
    <path d="M 19.8245614035088 19.4385964912281  C 20.0077972709552 19.2553606237817  20.0077972709552 18.9590643274854  19.8245614035088 18.775828460039  L 14.7953216374269 13.7465886939571  C 14.7056530214425 13.6569200779727  14.588693957115 13.6101364522417  14.4639376218324 13.6101364522417  L 14.0623781676413 13.6101364522417  C 15.3996101364522 12.1637426900585  16.2183235867446 10.233918128655  16.2183235867446 8.10916179337232  C 16.2183235867446 3.62962962962963  12.588693957115 0  8.10916179337232 0  C 3.62962962962963 0  0 3.62962962962963  0 8.10916179337232  C 0 12.588693957115  3.62962962962963 16.2183235867446  8.10916179337232 16.2183235867446  C 10.233918128655 16.2183235867446  12.1637426900585 15.3996101364522  13.6101364522417 14.0662768031189  L 13.6101364522417 14.4639376218324  C 13.6101364522417 14.588693957115  13.6608187134503 14.7056530214425  13.7465886939571 14.7953216374269  L 18.775828460039 19.8245614035088  C 18.9590643274854 20.0077972709552  19.2553606237817 20.0077972709552  19.4385964912281 19.8245614035088  L 19.8245614035088 19.4385964912281  Z M 14.9707602339181 8.10916179337232  C 14.9707602339181 11.9025341130604  11.9025341130604 14.9707602339181  8.10916179337232 14.9707602339181  C 4.31578947368421 14.9707602339181  1.24756335282651 11.9025341130604  1.24756335282651 8.10916179337232  C 1.24756335282651 4.31578947368421  4.31578947368421 1.24756335282651  8.10916179337232 1.24756335282651  C 11.9025341130604 1.24756335282651  14.9707602339181 4.31578947368421  14.9707602339181 8.10916179337232  Z " fill-rule="nonzero" fill="#777777" stroke="none" transform="matrix(1 0 0 1 258 13 )" />
  </g>
</svg>