<?xml version="1.0" encoding="utf-8"?>
<svg version="1.1" xmlns:xlink="http://www.w3.org/1999/xlink" width="20px" height="13px" xmlns="http://www.w3.org/2000/svg">
  <g transform="matrix(1 0 0 1 -81 -17 )">
    <path d="M 20 11.375  C 20 12.2724739583333  19.2538194444444 13  18.3333333333333 13  L 1.66666666666667 13  C 0.746180555555556 13  0 12.2724739583333  0 11.375  L 0 1.625  C 0 0.727526041666666  0.746180555555556 0  1.66666666666667 0  L 18.3333333333333 0  C 19.2538194444444 0  20 0.727526041666666  20 1.625  L 20 11.375  Z M 4.02777777777778 4.33333333333333  C 4.25788194444444 4.33333333333333  4.44444444444444 4.15143489583333  4.44444444444444 3.92708333333333  L 4.44444444444444 2.57291666666667  C 4.44444444444444 2.34856510416667  4.25788194444444 2.16666666666667  4.02777777777778 2.16666666666667  L 2.63888888888889 2.16666666666667  C 2.40878472222222 2.16666666666667  2.22222222222222 2.34856510416667  2.22222222222222 2.57291666666667  L 2.22222222222222 3.92708333333333  C 2.22222222222222 4.15143489583333  2.40878472222222 4.33333333333333  2.63888888888889 4.33333333333333  L 4.02777777777778 4.33333333333333  Z M 7.36111111111111 4.33333333333333  C 7.59121527777778 4.33333333333333  7.77777777777778 4.15143489583333  7.77777777777778 3.92708333333333  L 7.77777777777778 2.57291666666667  C 7.77777777777778 2.34856510416667  7.59121527777778 2.16666666666667  7.36111111111111 2.16666666666667  L 5.97222222222222 2.16666666666667  C 5.74211805555556 2.16666666666667  5.55555555555556 2.34856510416667  5.55555555555556 2.57291666666667  L 5.55555555555556 3.92708333333333  C 5.55555555555556 4.15143489583333  5.74211805555556 4.33333333333333  5.97222222222222 4.33333333333333  L 7.36111111111111 4.33333333333333  Z M 10.6944444444444 4.33333333333333  C 10.9245486111111 4.33333333333333  11.1111111111111 4.15143489583333  11.1111111111111 3.92708333333333  L 11.1111111111111 2.57291666666667  C 11.1111111111111 2.34856510416667  10.9245486111111 2.16666666666667  10.6944444444444 2.16666666666667  L 9.30555555555556 2.16666666666667  C 9.07545138888889 2.16666666666667  8.88888888888889 2.34856510416667  8.88888888888889 2.57291666666667  L 8.88888888888889 3.92708333333333  C 8.88888888888889 4.15143489583333  9.07545138888889 4.33333333333333  9.30555555555556 4.33333333333333  L 10.6944444444444 4.33333333333333  Z M 14.0277777777778 4.33333333333333  C 14.2578819444444 4.33333333333333  14.4444444444444 4.15143489583333  14.4444444444444 3.92708333333333  L 14.4444444444444 2.57291666666667  C 14.4444444444444 2.34856510416667  14.2578819444444 2.16666666666667  14.0277777777778 2.16666666666667  L 12.6388888888889 2.16666666666667  C 12.4087847222222 2.16666666666667  12.2222222222222 2.34856510416667  12.2222222222222 2.57291666666667  L 12.2222222222222 3.92708333333333  C 12.2222222222222 4.15143489583333  12.4087847222222 4.33333333333333  12.6388888888889 4.33333333333333  L 14.0277777777778 4.33333333333333  Z M 17.3611111111111 4.33333333333333  C 17.5912152777778 4.33333333333333  17.7777777777778 4.15143489583333  17.7777777777778 3.92708333333333  L 17.7777777777778 2.57291666666667  C 17.7777777777778 2.34856510416667  17.5912152777778 2.16666666666667  17.3611111111111 2.16666666666667  L 15.9722222222222 2.16666666666667  C 15.7421180555556 2.16666666666667  15.5555555555556 2.34856510416667  15.5555555555556 2.57291666666667  L 15.5555555555556 3.92708333333333  C 15.5555555555556 4.15143489583333  15.7421180555556 4.33333333333333  15.9722222222222 4.33333333333333  L 17.3611111111111 4.33333333333333  Z M 5.69444444444444 7.58333333333333  C 5.92454861111111 7.58333333333333  6.11111111111111 7.40143489583333  6.11111111111111 7.17708333333333  L 6.11111111111111 5.82291666666667  C 6.11111111111111 5.59856510416667  5.92454861111111 5.41666666666667  5.69444444444444 5.41666666666667  L 4.30555555555556 5.41666666666667  C 4.07545138888889 5.41666666666667  3.88888888888889 5.59856510416667  3.88888888888889 5.82291666666667  L 3.88888888888889 7.17708333333333  C 3.88888888888889 7.40143489583333  4.07545138888889 7.58333333333333  4.30555555555556 7.58333333333333  L 5.69444444444444 7.58333333333333  Z M 9.02777777777778 7.58333333333333  C 9.25788194444445 7.58333333333333  9.44444444444444 7.40143489583333  9.44444444444444 7.17708333333333  L 9.44444444444444 5.82291666666667  C 9.44444444444444 5.59856510416667  9.25788194444445 5.41666666666667  9.02777777777778 5.41666666666667  L 7.63888888888889 5.41666666666667  C 7.40878472222222 5.41666666666667  7.22222222222222 5.59856510416667  7.22222222222222 5.82291666666667  L 7.22222222222222 7.17708333333333  C 7.22222222222222 7.40143489583333  7.40878472222222 7.58333333333333  7.63888888888889 7.58333333333333  L 9.02777777777778 7.58333333333333  Z M 12.3611111111111 7.58333333333333  C 12.5912152777778 7.58333333333333  12.7777777777778 7.40143489583333  12.7777777777778 7.17708333333333  L 12.7777777777778 5.82291666666667  C 12.7777777777778 5.59856510416667  12.5912152777778 5.41666666666667  12.3611111111111 5.41666666666667  L 10.9722222222222 5.41666666666667  C 10.7421180555556 5.41666666666667  10.5555555555556 5.59856510416667  10.5555555555556 5.82291666666667  L 10.5555555555556 7.17708333333333  C 10.5555555555556 7.40143489583333  10.7421180555556 7.58333333333333  10.9722222222222 7.58333333333333  L 12.3611111111111 7.58333333333333  Z M 15.6944444444444 7.58333333333333  C 15.9245486111111 7.58333333333333  16.1111111111111 7.40143489583333  16.1111111111111 7.17708333333333  L 16.1111111111111 5.82291666666667  C 16.1111111111111 5.59856510416667  15.9245486111111 5.41666666666667  15.6944444444444 5.41666666666667  L 14.3055555555556 5.41666666666667  C 14.0754513888889 5.41666666666667  13.8888888888889 5.59856510416667  13.8888888888889 5.82291666666667  L 13.8888888888889 7.17708333333333  C 13.8888888888889 7.40143489583333  14.0754513888889 7.58333333333333  14.3055555555556 7.58333333333333  L 15.6944444444444 7.58333333333333  Z M 4.02777777777778 10.8333333333333  C 4.25788194444444 10.8333333333333  4.44444444444444 10.6514348958333  4.44444444444444 10.4270833333333  L 4.44444444444444 9.07291666666667  C 4.44444444444444 8.84856510416667  4.25788194444444 8.66666666666667  4.02777777777778 8.66666666666667  L 2.63888888888889 8.66666666666667  C 2.40878472222222 8.66666666666667  2.22222222222222 8.84856510416667  2.22222222222222 9.07291666666667  L 2.22222222222222 10.4270833333333  C 2.22222222222222 10.6514348958333  2.40878472222222 10.8333333333333  2.63888888888889 10.8333333333333  L 4.02777777777778 10.8333333333333  Z M 14.0277777777778 10.8333333333333  C 14.2578819444444 10.8333333333333  14.4444444444444 10.6514348958333  14.4444444444444 10.4270833333333  L 14.4444444444444 9.07291666666667  C 14.4444444444444 8.84856510416667  14.2578819444444 8.66666666666667  14.0277777777778 8.66666666666667  L 5.97222222222222 8.66666666666667  C 5.74211805555556 8.66666666666667  5.55555555555556 8.84856510416667  5.55555555555556 9.07291666666667  L 5.55555555555556 10.4270833333333  C 5.55555555555556 10.6514348958333  5.74211805555556 10.8333333333333  5.97222222222222 10.8333333333333  L 14.0277777777778 10.8333333333333  Z M 17.3611111111111 10.8333333333333  C 17.5912152777778 10.8333333333333  17.7777777777778 10.6514348958333  17.7777777777778 10.4270833333333  L 17.7777777777778 9.07291666666667  C 17.7777777777778 8.84856510416667  17.5912152777778 8.66666666666667  17.3611111111111 8.66666666666667  L 15.9722222222222 8.66666666666667  C 15.7421180555556 8.66666666666667  15.5555555555556 8.84856510416667  15.5555555555556 9.07291666666667  L 15.5555555555556 10.4270833333333  C 15.5555555555556 10.6514348958333  15.7421180555556 10.8333333333333  15.9722222222222 10.8333333333333  L 17.3611111111111 10.8333333333333  Z " fill-rule="nonzero" fill="#777777" stroke="none" transform="matrix(1 0 0 1 81 17 )" />
  </g>
</svg>