<?xml version="1.0" encoding="utf-8"?>
<svg version="1.1" xmlns:xlink="http://www.w3.org/1999/xlink" width="20px" height="20px" xmlns="http://www.w3.org/2000/svg">
  <g transform="matrix(1 0 0 1 -326 -95 )">
    <path d="M 20 2.14285714285714  C 20 0.959821428571429  19.0401785714286 0  17.8571428571429 0  L 2.14285714285714 0  C 0.959821428571429 0  0 0.959821428571429  0 2.14285714285714  L 0 17.8571428571429  C 0 19.0401785714286  0.959821428571429 20  2.14285714285714 20  L 17.8571428571429 20  C 19.0401785714286 20  20 19.0401785714286  20 17.8571428571429  L 20 2.14285714285714  Z M 18.5714285714286 2.14285714285714  L 18.5714285714286 17.8571428571429  C 18.5714285714286 18.25  18.25 18.5714285714286  17.8571428571429 18.5714285714286  L 2.14285714285714 18.5714285714286  C 1.75 18.5714285714286  1.42857142857143 18.25  1.42857142857143 17.8571428571429  L 1.42857142857143 2.14285714285714  C 1.42857142857143 1.75  1.75 1.42857142857143  2.14285714285714 1.42857142857143  L 17.8571428571429 1.42857142857143  C 18.25 1.42857142857143  18.5714285714286 1.75  18.5714285714286 2.14285714285714  Z M 16.6205357142857 4.42410714285714  L 15.5758928571429 3.37946428571429  C 14.8794642857143 2.68303571428571  13.75 2.68303571428571  13.0491071428571 3.37946428571429  L 3.21428571428571 13.2142857142857  L 2.86160714285714 16.4017857142857  C 2.8125 16.8303571428571  3.17410714285714 17.1875  3.60267857142857 17.1428571428571  L 6.78571428571429 16.7857142857143  L 16.6205357142857 6.95089285714286  C 17.3169642857143 6.25446428571428  17.3169642857143 5.125  16.6205357142857 4.42410714285714  Z M 13.3883928571429 8.15178571428571  L 6.12946428571429 15.4196428571429  L 4.38392857142857 15.6116071428571  L 4.57589285714286 13.8660714285714  L 11.8392857142857 6.60267857142857  L 13.3883928571429 8.15178571428571  Z M 15.6116071428571 5.4375  C 15.75 5.57589285714286  15.75 5.80357142857143  15.6116071428571 5.94196428571428  L 14.40625 7.14732142857143  L 12.8571428571429 5.59821428571428  L 14.0625 4.39285714285714  C 14.2008928571429 4.25446428571428  14.4285714285714 4.25446428571428  14.5669642857143 4.39285714285714  L 15.6116071428571 5.4375  Z " fill-rule="nonzero" fill="#ffffff" stroke="none" transform="matrix(1 0 0 1 326 95 )" />
  </g>
</svg>