<?xml version="1.0" encoding="utf-8"?>
<svg version="1.1" xmlns:xlink="http://www.w3.org/1999/xlink" width="9px" height="10px" xmlns="http://www.w3.org/2000/svg">
  <g transform="matrix(1 0 0 1 -332 -18 )">
    <path d="M 8.9971875 4.11111111111111  C 9 3.01944444444444  8.51625 2  7.63875 1.24166666666667  C 6.795 0.51111111111111  5.68125 0.111111111111111  4.5 0.111111111111111  C 3.31875 0.111111111111111  2.205 0.513888888888889  1.36125 1.24166666666667  C 0.48375 2  0 3.01944444444444  0 4.11111111111111  L 0 4.32222222222222  C 0 4.44444444444444  0.101250000000001 4.54444444444445  0.225 4.54444444444445  L 1.575 4.54444444444445  C 1.69875 4.54444444444445  1.8 4.44444444444444  1.8 4.32222222222222  L 1.8 4.11111111111111  C 1.8 2.88611111111111  3.0121875 1.88888888888889  4.5 1.88888888888889  C 5.9878125 1.88888888888889  7.2 2.88611111111111  7.2 4.11111111111111  C 7.2 4.975  6.58125 5.76666666666667  5.6221875 6.13055555555556  C 5.0259375 6.35555555555556  4.5196875 6.75  4.156875 7.26666666666667  C 3.7884375 7.79444444444445  3.5971875 8.42777777777778  3.5971875 9.06944444444444  L 3.5971875 9.66666666666667  C 3.5971875 9.78888888888889  3.6984375 9.88888888888889  3.8221875 9.88888888888889  L 5.1721875 9.88888888888889  C 5.2959375 9.88888888888889  5.3971875 9.78888888888889  5.3971875 9.66666666666667  L 5.3971875 9.03611111111111  C 5.3971875 8.48888888888889  5.7459375 7.98888888888889  6.26625 7.79166666666667  C 7.925625 7.16111111111111  8.9971875 5.71666666666667  8.9971875 4.11111111111111  Z " fill-rule="nonzero" fill="#ffffff" stroke="none" transform="matrix(1 0 0 1 332 18 )" />
  </g>
</svg>