<?xml version="1.0" encoding="utf-8"?>
<svg version="1.1" xmlns:xlink="http://www.w3.org/1999/xlink" width="20px" height="20px" xmlns="http://www.w3.org/2000/svg">
  <g transform="matrix(1 0 0 1 -170 -12 )">
    <path d="M 0.535714285480489 4.28571428571429  C 0.239866071323889 4.28571428571429  0 4.04584821428571  0 3.75  L 0 0.535714285714286  C 0 0.239866071428571  0.239866071323889 0  0.535714285480489 0  L 19.4642857057911 0  C 19.7601339199477 0  19.9999999912716 0.239866071428571  19.9999999912716 0.535714285714286  L 19.9999999912716 3.75  C 19.9999999912716 4.04584821428571  19.7601339199477 4.28571428571429  19.4642857057911 4.28571428571429  L 19.0857142773849 4.28571428571429  C 18.7898660632283 4.28571428571429  18.5499999919044 4.04584821428571  18.5499999919044 3.75  L 18.5499999919044 1.42857142857143  L 10.7391071381704 1.42857142857143  L 10.7391071381704 12.8571428571429  L 12.6785714230382 12.8571428571429  C 12.9744196371948 12.8571428571429  13.2142857085187 13.0970089285714  13.2142857085187 13.3928571428571  L 13.2142857085187 13.75  C 13.2142857085187 14.0458482142857  12.9744196371948 14.2857142857143  12.6785714230382 14.2857142857143  L 7.32142856823335 14.2857142857143  C 7.02558035407675 14.2857142857143  6.78571428275287 14.0458482142857  6.78571428275287 13.75  L 6.78571428275287 13.3928571428571  C 6.78571428275287 13.0970089285714  7.02558035407675 12.8571428571429  7.32142856823335 12.8571428571429  L 9.26089285310122 12.8571428571429  L 9.26089285310122 1.42857142857143  L 1.44999999936719 1.42857142857143  L 1.44999999936719 3.75  C 1.44999999936719 4.04584821428571  1.2101339280433 4.28571428571429  0.914285713886702 4.28571428571429  L 0.535714285480489 4.28571428571429  Z M 19.8715624913277 18.1319642857143  C 20.0427232055387 17.9894642857143  20.0429017769672 17.72625  19.8715624913277 17.5834821428571  L 17.7286607065486 15.7984821428571  C 17.5157142780701 15.6211160714286  17.1428571353757 15.7361607142857  17.1428571353757 16.0727232142857  L 17.1428571353757 17  L 2.85714285589594 17  L 2.85714285589594 16.0715178571429  C 2.85714285589594 15.7661160714286  2.50129464176553 15.6057142857143  2.27133928472303 15.7972767857143  L 0.128437499943947 17.5822767857143  C -0.0426785714099457 17.7248214285714  -0.0429017856955625 17.9880357142857  0.128437499943947 18.1308035714286  L 2.27133928472303 19.9158035714286  C 2.48428571320152 20.0931696428571  2.85714285589594 19.978125  2.85714285589594 19.6415625  L 2.85714285589594 18.5714285714286  L 17.1428571353757 18.5714285714286  L 17.1428571353757 19.6427678571429  C 17.1428571353757 19.9481696428571  17.4987053495061 20.1085714285714  17.7286607065486 19.9170089285714  L 19.8715624913277 18.1319642857143  Z " fill-rule="nonzero" fill="#777777" stroke="none" transform="matrix(1 0 0 1 170 12 )" />
  </g>
</svg>