<?xml version="1.0" encoding="utf-8"?>
<svg version="1.1" xmlns:xlink="http://www.w3.org/1999/xlink" width="28px" height="17px" xmlns="http://www.w3.org/2000/svg">
  <g transform="matrix(1 0 0 1 -317 -182 )">
    <path d="M 20.5592511700468 5.709609375  C 20.6955433530515 5.57111525504209  20.6955433530515 5.34695766162458  20.5592511700468 5.20846354166667  L 20.0652106084243 4.70776041666667  C 19.9289235569423 4.56963541666667  19.7074570982839 4.56963541666667  19.5711700468019 4.70776041666667  L 16.817472698908 7.49815104166667  L 14.0642121684867 4.70776041666667  C 13.9279251170047 4.56963541666667  13.7064586583463 4.56963541666667  13.5701716068643 4.70776041666667  L 13.0761310452418 5.20846354166667  C 12.9398439937598 5.34658854166667  12.9398439937598 5.57104166666667  13.0761310452418 5.70916666666667  L 15.829391575663 8.5  L 13.0761310452418 11.290390625  C 12.9398439937598 11.428515625  12.9398439937598 11.65296875  13.0761310452418 11.79109375  L 13.5701716068643 12.291796875  C 13.7064586583463 12.429921875  13.9279251170047 12.429921875  14.0642121684867 12.291796875  L 16.817472698908 9.50184895833333  L 19.5707332293292 12.2922395833333  C 19.7070202808112 12.4303645833333  19.9284867394696 12.4303645833333  20.0647737909516 12.2922395833333  L 20.5588143525741 11.7915364583333  C 20.6951014040562 11.6534114583333  20.6951014040562 11.4289583333333  20.5588143525741 11.2908333333333  L 17.8059906396256 8.5  L 20.5592511700468 5.709609375  Z M 28 2.83333333333333  C 28 1.268359375  26.7485179407176 0  25.204368174727 0  L 9.00979719188768 0  C 8.26808112324493 0  7.55694227769111 0.298385416666666  7.03276131045242 0.829635416666667  L 0.452979719188768 7.49815104166667  C -0.0930421216848674 8.05153645833333  -0.0930421216848674 8.94846354166667  0.452979719188768 9.50140625  L 7.03276131045242 16.169921875  C 7.55694227769111 16.701171875  8.26808112324493 17  9.00936037441498 17  L 25.204368174727 17  C 26.7485179407176 17  28 15.731640625  28 14.1666666666667  L 28 2.83333333333333  Z M 26.6021840873635 2.83333333333333  L 26.6021840873635 14.1666666666667  C 26.6021840873635 14.9476041666667  25.9749141965679 15.5833333333333  25.204368174727 15.5833333333333  L 9.00979719188768 15.5833333333333  C 8.63631825273011 15.5833333333333  8.28555382215289 15.4359114583333  8.02127925117005 15.168515625  L 1.4414976599064 8.5  L 8.02127925117005 1.831484375  C 8.28511700468019 1.56408854166667  8.63631825273011 1.41666666666667  9.00979719188768 1.41666666666667  L 25.204368174727 1.41666666666667  C 25.9749141965679 1.41666666666667  26.6021840873635 2.05239583333333  26.6021840873635 2.83333333333333  Z " fill-rule="nonzero" fill="#777777" stroke="none" transform="matrix(1 0 0 1 317 182 )" />
  </g>
</svg>