<?xml version="1.0" encoding="utf-8"?>
<svg version="1.1" xmlns:xlink="http://www.w3.org/1999/xlink" width="24px" height="21px" xmlns="http://www.w3.org/2000/svg">
  <g transform="matrix(1 0 0 1 -18 -263 )">
    <path d="M 22.49958984375 12.10494140625  C 23.28134765625 11.650078125  23.8125 10.81294921875  23.8125 9.84375  C 23.8125 8.87455078125  23.28134765625 8.037421875  22.5 7.58296875  L 22.5 1.31291015625  C 22.5 0.9540234375  22.2137109375 0  21.1875 0  C 20.89546875 0  20.60548828125 0.0976171875  20.3680078125 0.2879296875  L 16.88044921875 3.07822265625  C 15.128671875 4.47849609375  12.9294140625 5.25  10.6875 5.25  L 2.8125 5.25  C 1.36259765625 5.25  0.187499999999999 6.42509765625  0.187499999999999 7.875  L 0.187499999999999 11.8125  C 0.187499999999999 13.26240234375  1.36259765625 14.4375  2.8125 14.4375  L 4.1947265625 14.4375  C 4.13771484375 14.86734375  4.1053125 15.3045703125  4.1053125 15.75  C 4.1053125 17.38119140625  4.4851171875 18.92255859375  5.153671875 20.3002734375  C 5.36654296875 20.73873046875  5.83125 21  6.318515625 21  L 9.36515625 21  C 10.43361328125 21  11.07509765625 19.77609375  10.4274609375 18.92625  C 9.7548046875 18.04359375  9.35490234375 16.942734375  9.35490234375 15.75  C 9.35490234375 15.29431640625  9.42134765625 14.85626953125  9.53578125 14.4375  L 10.6875 14.4375  C 12.9294140625 14.4375  15.128671875 15.20900390625  16.8800390625 16.60927734375  L 20.36759765625 19.3995703125  C 20.6002028433294 19.5857073651776  20.8891769249131 19.6872387992475  21.18708984375 19.6875  C 22.20919921875 19.6875  22.49958984375 18.7531640625  22.49958984375 18.375  L 22.49958984375 12.10494140625  Z M 19.875 4.0433203125  L 19.875 15.6441796875  L 18.51943359375 14.5597265625  C 16.30458984375 12.7878515625  13.5225 11.8125  10.6875 11.8125  L 10.6875 7.875  C 13.5225 7.875  16.30458984375 6.8996484375  18.51943359375 5.1277734375  L 19.875 4.0433203125  Z " fill-rule="nonzero" fill="#ff0033" stroke="none" transform="matrix(1 0 0 1 18 263 )" />
  </g>
</svg>