<?xml version="1.0" encoding="utf-8"?>
<svg version="1.1" xmlns:xlink="http://www.w3.org/1999/xlink" width="24px" height="19px" xmlns="http://www.w3.org/2000/svg">
  <g transform="matrix(1 0 0 1 -18 -312 )">
    <path d="M 19.434375 11.4188920454545  C 19.5428571428571 11.5120028409091  19.6071428571429 11.6496448863636  19.6071428571429 11.7953835227273  L 19.6071428571429 17.5965909090909  C 19.6071428571429 18.1350142045455  19.1772321428571 18.5681818181818  18.6428571428571 18.5681818181818  L 13.9821428571429 18.5681818181818  C 13.7169642857143 18.5681818181818  13.5 18.3495738636364  13.5 18.0823863636364  L 13.5 13.5482954545455  C 13.5 13.2811079545455  13.2830357142857 13.0625  13.0178571428571 13.0625  L 10.125 13.0625  C 9.85982142857143 13.0625  9.64285714285714 13.2811079545455  9.64285714285714 13.5482954545455  L 9.64285714285714 18.0823863636364  C 9.64285714285714 18.3495738636364  9.42589285714286 18.5681818181818  9.16071428571428 18.5681818181818  L 4.5 18.5681818181818  C 3.965625 18.5681818181818  3.53571428571429 18.1350142045455  3.53571428571429 17.5965909090909  L 3.53571428571429 11.7953835227273  C 3.53571428571429 11.6496448863636  3.6 11.5120028409091  3.7125 11.4188920454545  L 11.2660714285714 5.15213068181818  C 11.4428571428571 5.00639204545454  11.7 5.00639204545454  11.8808035714286 5.15213068181818  L 19.434375 11.4188920454545  Z M 23.034375 10.0141335227273  C 23.203125 9.80362215909091  23.1709821428571 9.5  22.9660714285714 9.32997159090909  L 19.6071428571429 6.54069602272727  L 19.6071428571429 0.933806818181818  C 19.6071428571429 0.666619318181818  19.3901785714286 0.448011363636364  19.125 0.448011363636364  L 16.875 0.448011363636364  C 16.6098214285714 0.448011363636364  16.3928571428571 0.666619318181818  16.3928571428571 0.933806818181818  L 16.3928571428571 3.87286931818182  L 12.796875 0.889275568181818  C 12.0857142857143 0.298224431818182  11.0571428571429 0.298224431818182  10.3459821428571 0.889275568181818  L 0.176785714285714 9.32997159090909  C -0.028125 9.5  -0.05625 9.80767045454546  0.1125 10.0141335227273  L 1.13705357142857 11.2691051136364  C 1.30580357142857 11.4755681818182  1.61116071428571 11.50390625  1.81607142857143 11.3338778409091  L 11.2660714285714 3.49232954545455  C 11.4428571428571 3.34659090909091  11.7 3.34659090909091  11.8808035714286 3.49232954545455  L 21.3308035714286 11.3338778409091  C 21.5357142857143 11.50390625  21.8410714285714 11.4755681818182  22.0098214285714 11.2691051136364  L 23.034375 10.0141335227273  Z " fill-rule="nonzero" fill="#eecc00" stroke="none" transform="matrix(1 0 0 1 18 312 )" />
  </g>
</svg>