<?xml version="1.0" encoding="utf-8"?>
<svg version="1.1" xmlns:xlink="http://www.w3.org/1999/xlink" width="24px" height="24px" xmlns="http://www.w3.org/2000/svg">
  <g transform="matrix(1 0 0 1 -276 -12 )">
    <path d="M 23.7894736842105 23.3263157894737  C 24.0093567251462 23.106432748538  24.0093567251462 22.7508771929825  23.7894736842105 22.5309941520468  L 17.7543859649123 16.4959064327485  C 17.646783625731 16.3883040935673  17.506432748538 16.3321637426901  17.3567251461988 16.3321637426901  L 16.8748538011696 16.3321637426901  C 18.4795321637427 14.5964912280702  19.4619883040936 12.280701754386  19.4619883040936 9.73099415204678  C 19.4619883040936 4.35555555555556  15.106432748538 0  9.73099415204678 0  C 4.35555555555556 0  0 4.35555555555556  0 9.73099415204678  C 0 15.106432748538  4.35555555555556 19.4619883040936  9.73099415204678 19.4619883040936  C 12.280701754386 19.4619883040936  14.5964912280702 18.4795321637427  16.3321637426901 16.8795321637427  L 16.3321637426901 17.3567251461988  C 16.3321637426901 17.506432748538  16.3929824561404 17.646783625731  16.4959064327485 17.7543859649123  L 22.5309941520468 23.7894736842105  C 22.7508771929825 24.0093567251462  23.106432748538 24.0093567251462  23.3263157894737 23.7894736842105  L 23.7894736842105 23.3263157894737  Z M 17.9649122807018 9.73099415204678  C 17.9649122807018 14.2830409356725  14.2830409356725 17.9649122807018  9.73099415204678 17.9649122807018  C 5.17894736842105 17.9649122807018  1.49707602339181 14.2830409356725  1.49707602339181 9.73099415204678  C 1.49707602339181 5.17894736842105  5.17894736842105 1.49707602339181  9.73099415204678 1.49707602339181  C 14.2830409356725 1.49707602339181  17.9649122807018 5.17894736842105  17.9649122807018 9.73099415204678  Z " fill-rule="nonzero" fill="#ffffff" stroke="none" transform="matrix(1 0 0 1 276 12 )" />
  </g>
</svg>