<?xml version="1.0" encoding="utf-8"?>
<svg version="1.1" xmlns:xlink="http://www.w3.org/1999/xlink" width="24px" height="21px" xmlns="http://www.w3.org/2000/svg">
  <g transform="matrix(1 0 0 1 -317 -666 )">
    <path d="M 23.1290625 1.69741586538462  C 23.4721875 1.09259314903846  23.041875 0.334435096153846  22.3528125 0.334435096153846  L 1.6471875 0.334435096153846  C 0.958125 0.334435096153846  0.5278125 1.09259314903846  0.87375 1.69741586538462  L 7.415625 12.9249699519231  L 7.415625 19.7569110576923  C 7.415625 20.2595102163462  7.815 20.6655649038462  8.31 20.6655649038462  L 15.69 20.6655649038462  C 16.185 20.6655649038462  16.584375 20.2595102163462  16.584375 19.7569110576923  L 16.584375 12.9249699519231  L 23.1290625 1.69741586538462  Z M 14.5734375 18.62109375  L 14.570625 18.62109375  L 9.429375 18.62109375  L 9.429375 14.19140625  L 14.5734375 14.19140625  L 14.5734375 18.62109375  Z M 20.4178125 2.37890625  L 14.840625 11.902734375  L 14.5734375 12.3740985576923  L 9.4265625 12.3740985576923  L 9.159375 11.902734375  L 3.5821875 2.37890625  L 20.4178125 2.37890625  Z " fill-rule="nonzero" fill="#333333" stroke="none" transform="matrix(1 0 0 1 317 666 )" />
  </g>
</svg>