<?xml version="1.0" encoding="utf-8"?>
<svg version="1.1" xmlns:xlink="http://www.w3.org/1999/xlink" width="23px" height="25px" xmlns="http://www.w3.org/2000/svg">
  <g transform="matrix(1 0 0 1 -12 -12 )">
    <path d="M 22.9891640625 22.27115625  L 22.9891640625 22.0261640625  C 22.9891640625 18.9146015625  21.1675546875 16.2084375  18.5382890625 14.9199140625  C 18.6661004424933 15.212597845784  18.7320115454059 15.5285482234865  18.7318828125 15.847921875  L 18.7318828125 16.1225390625  C 19.9992421875 16.3888359375  20.9584453125 17.5189921875  20.9584453125 18.8625234375  L 20.9584453125 20.3682890625  C 21.15084375 20.5340390625  21.2727890625 20.7792421875  21.2727890625 21.0530859375  C 21.2727890625 21.5522109375  20.8681640625 21.9568125  20.3690625 21.9568125  C 19.8699375 21.9568125  19.4653125 21.5521875  19.4653125 21.0530859375  C 19.4653125 20.75221875  19.6125 20.4858984375  19.8386015625 20.3216015625  L 19.8386015625 18.7833984375  C 19.8386015625 17.870625  19.0918125 17.1238359375  18.1790625 17.1238359375  L 18.1779609375 17.1238359375  C 17.2651875 17.1238359375  16.5183984375 17.870625  16.5183984375 18.7833984375  L 16.5183984375 20.3516953125  C 16.7221171875 20.5173984375  16.8523828125 20.7700078125  16.8523828125 21.0530859375  C 16.8523828125 21.5522109375  16.4477578125 21.9568125  15.9486328125 21.9568125  C 15.44953125 21.9568125  15.04490625 21.5521875  15.04490625 21.0530859375  C 15.04490625 20.7792421875  15.1668984375 20.5340625  15.3592265625 20.3682890625  L 15.3592265625 18.8625234375  C 15.3592265625 17.4899765625  16.36059375 16.3406484375  17.6686640625 16.10709375  C 17.6174296875 15.4326328125  17.3438203125 14.8180546875  16.9215703125 14.3364609375  C 16.4900919712348 14.2326442745499  16.0505742917218 14.1656691065322  15.6077578125 14.1362578125  C 15.3907265625 19.11778125  13.85821875 22.978453125  11.9997421875 22.978453125  C 10.1411015625 22.978453125  8.60854687499999 19.117171875  8.3916796875 14.1350859375  C 8.382046875 14.1356953125  8.3725078125 14.1366328125  8.3628984375 14.1372890625  C 7.91165625 14.6684765625  7.6382578125 15.3547265625  7.6382578125 16.102171875  L 7.6382578125 18.3856875  C 8.280375 18.6217265625  8.7384609375 19.23871875  8.7384609375 19.9627265625  C 8.7384609375 20.8904296875  7.9863984375 21.6424921875  7.0586953125 21.6424921875  C 6.1309921875 21.6424921875  5.3789296875 20.8904296875  5.3789296875 19.9627265625  C 5.3789296875 19.1999765625  5.8875234375 18.556359375  6.583921875 18.35146875  L 6.583921875 15.6121171875  C 6.583921875 15.1542890625  6.71775 14.7264140625  6.9475078125 14.36475  C 3.534328125 15.2397890625  0.991875 18.3500390625  0.991875 22.0261640625  L 0.991875 22.27115625  L 1.00865625 22.27115625  C 1.00434375 22.290375  1.00134375 22.3097109375  1.00134375 22.329140625  C 1.00134375 23.2519453125  5.923453125 24.000046875  11.9952421875 24.000046875  C 18.06703125 24.000046875  22.9891640625 23.251921875  22.9891640625 22.3291171875  C 22.9891640625 22.3097109375  22.9861875 22.2903984375  22.9818515625 22.27115625  L 22.9891640625 22.27115625  Z M 17.0586796875 7.3325859375  C 17.0586796875 6.29503125  14.8486875 5.4539296875  12.122578125 5.4539296875  C 9.396421875 5.4539296875  7.18640625 6.29503125  7.18640625 7.332609375  C 7.18640625 7.368046875  7.1892421875 7.4032265625  7.194328125 7.4381953125  L 7.18640625 7.4381953125  L 8.2291640625 12.3406875  C 8.24449850183967 12.42686629604  8.26271181402365 12.5125079476656  8.2837734375 12.59746875  L 8.2866328125 12.610921875  C 8.718421875 14.328984375  10.28025 15.6110625  12.1271953125 15.6110625  C 14.101734375 15.6110625  15.7502578125 14.1466875  16.0407421875 12.25059375  L 17.0586796875 7.438171875  L 17.05078125 7.438171875  C 17.0558671875 7.40325  17.0586796875 7.3680234375  17.0586796875 7.3325859375  Z M 12.0979921875 5.0871796875  C 14.52159375 5.0871796875  16.5790078125 5.8932421875  17.3122265625 7.0125  L 17.5072734375 7.0125  L 17.5072734375 2.3104921875  C 17.5066640625 2.301796875  17.5072734375 2.293078125  17.5072734375 2.2843125  C 17.5072734375 1.2354609375  15.0968203125 0.385171875  12.123375 0.385171875  C 9.1499296875 0.385171875  6.739453125 1.2354375  6.739453125 2.2843125  C 6.739453125 2.2930546875  6.7400625 2.301796875  6.740390625 2.3104921875  L 6.739453125 7.0125234375  L 6.8837578125 7.0125234375  C 7.616953125 5.8932421875  9.674390625 5.087203125  12.0979921875 5.087203125  Z M 10.604859375 2.6199140625  C 10.604859375 2.41734375  10.7706328125 2.2515703125  10.97325 2.2515703125  L 11.759109375 2.2515703125  L 11.759109375 1.46578125  C 11.759109375 1.2631875  11.924859375 1.097390625  12.127453125 1.097390625  C 12.330046875 1.097390625  12.4958203125 1.2631640625  12.4958203125 1.4657578125  L 12.4958203125 2.2516171875  L 13.2816796875 2.2516171875  C 13.484296875 2.2516171875  13.6500703125 2.417390625  13.6500703125 2.619984375  C 13.6500703125 2.822578125  13.4843203125 2.988375  13.2816796875 2.988375  L 12.4958203125 2.988375  L 12.4958203125 3.774234375  C 12.4958203125 3.976828125  12.3300703125 4.142578125  12.127453125 4.142578125  C 11.9248359375 4.142578125  11.759109375 3.976828125  11.759109375 3.774234375  L 11.759109375 2.9883515625  L 10.97325 2.9883515625  C 10.7706328125 2.9883515625  10.604859375 2.8225546875  10.604859375 2.6199609375  Z " fill-rule="nonzero" fill="#00ccaa" stroke="none" transform="matrix(1 0 0 1 12 12 )" />
  </g>
</svg>