<?xml version="1.0" encoding="utf-8"?>
<svg version="1.1" xmlns:xlink="http://www.w3.org/1999/xlink" width="24px" height="24px" xmlns="http://www.w3.org/2000/svg">
  <g transform="matrix(1 0 0 1 -98 -12 )">
    <path d="M 6.18600037036598 21  C 2.36749231514703 18.8858684442893  -0.0015536183217798 14.8646941982467  0 10.5  L 0 9  L 23.9999992355707 9  L 23.9999992355707 10.5  C 24.0015536183218 14.8646941982467  21.632507684853 18.8858684442893  17.813999629634 21  L 6.18600037036598 21  Z M 6.7500003344378 22.5  L 17.2499996655622 22.5  C 17.6642132015489 22.5  17.9999996177854 22.8357864376269  17.9999996177854 23.25  C 17.9999996177854 23.6642135623731  17.6642132015489 24  17.2499996655622 24  L 6.7500003344378 24  C 6.33578679845112 24  6.00000038221463 23.6642135623731  6.00000038221463 23.25  C 6.00000038221463 22.8357864376269  6.33578679845112 22.5  6.7500003344378 22.5  Z M 13.1219999285259 7.5  L 1.5000006688756 7.5  C 2.186257607958 4.8521794140836  4.5756938170772 3.00308366301477  7.31100029870073 3.00308366301477  C 10.0463067803243 3.00308366301477  12.4357429894435 4.8521794140836  13.1219999285259 7.5  Z M 14.6609998304878 7.5  C 14.1417805550165 4.96602722946272  12.35564989746 2.87729689216906  9.93300013167294 1.971  C 11.3161155070502 0.703574379722784  13.123999922398 0.000512711116885667  14.9999998264175 0.000512711116885667  C 19.1419349615685 0.000512711116885667  22.4997161822992 3.35806461067585  22.4999993311244 7.5  L 14.6609998304878 7.5  Z " fill-rule="nonzero" fill="#ffffff" stroke="none" transform="matrix(1 0 0 1 98 12 )" />
  </g>
</svg>