<?xml version="1.0" encoding="utf-8"?>
<svg version="1.1" xmlns:xlink="http://www.w3.org/1999/xlink" width="18px" height="18px" xmlns="http://www.w3.org/2000/svg">
  <g transform="matrix(1 0 0 1 -15 -96 )">
    <path d="M 13.346875 10.250625  C 13.4673203100824 10.2448574831288  13.5865163380141 10.2772263127322  13.6875 10.343125  C 13.8375 10.439375  13.938125 10.595  13.979375 10.7675  C 14.0226712277087 10.9443025938062  14.0004687559441 11.1308033566286  13.916875 11.2925  L 12.041875 13.6525  C 11.86875 13.985  11.48625 14.09875  11.1875 13.906875  C 10.88875 13.715  10.78625 13.29  10.95875 12.9575  L 12.02125 11.62  L 4.685625 11.62  C 4.30730994636591 11.62  4.000625 11.3133150536341  4.000625 10.935  C 4.000625 10.5566849463659  4.30730994636591 10.25  4.685625 10.25  L 13.315625 10.25  L 13.3475 10.250625  Z M 4.653125 7.75  C 4.5326796899176 7.75576751687122  4.41348366198595 7.72339868726776  4.3125 7.6575  C 4.16398674650686 7.55911213663148  4.05937253516347 7.40700710557759  4.020625 7.233125  C 3.97732877229131 7.05632240619379  3.99953124405589 6.86982164337135  4.083125 6.708125  L 5.95875 4.348125  C 6.13125 4.015625  6.51375 3.901875  6.8125 4.09375  C 7.11125 4.285625  7.21375 4.710625  7.04125 5.043125  L 5.97875 6.380625  L 13.315 6.380625  C 13.6933150825047 6.380625  14.0000000288706 6.68730994636591  14.0000000288706 7.065625  C 14.0000000288706 7.44394005363409  13.6933150825047 7.750625  13.3150000288706 7.750625  L 4.685 7.750625  L 4.65375 7.75  Z M 0.25 16.505625  L 0.25 1.49375  C 0.25 0.806875  0.8125 0.25  1.494375 0.25  L 16.50625 0.25  C 17.193125 0.25  17.75 0.8125  17.75 1.494375  L 17.75 16.50625  C 17.75 17.19375  17.1875 17.750625  16.505625 17.750625  L 1.49375 17.750625  C 0.806875 17.75  0.25 17.1875  0.25 16.505625  Z M 2.125 1.5  C 1.77982203135575 1.5  1.5 1.77982203135575  1.5 2.125  L 1.5 15.87375  C 1.49999916666604 15.8741666661462  1.49999874999875 15.8745833330217  1.49999874999875 15.8750000000013  C 1.49999874999875 16.2201779686455  1.7798207813545 16.5000000000013  2.12499874999875 16.5000000000013  L 15.875 16.5  C 16.2201779686442 16.5  16.5 16.2201779686442  16.5 15.875  L 16.5 2.125  C 16.5 1.77982203135575  16.2201779686442 1.5  15.875 1.5  L 2.125 1.5  Z " fill-rule="nonzero" fill="#ffffff" stroke="none" transform="matrix(1 0 0 1 15 96 )" />
  </g>
</svg>