<?xml version="1.0" encoding="utf-8"?>
<svg version="1.1" xmlns:xlink="http://www.w3.org/1999/xlink" width="20px" height="24px" xmlns="http://www.w3.org/2000/svg">
  <g transform="matrix(1 0 0 1 -14 -12 )">
    <path d="M 10.75 2.25  C 10.75 3.49265625  11.75734375 4.5  13 4.5  C 14.24265625 4.5  15.25 3.49265625  15.25 2.25  C 15.25 1.00734375  14.24265625 0  13 0  C 11.75734375 0  10.75 1.00734375  10.75 2.25  Z M 7.36 16.87875  C 6.548125 16.39921875  5.9509375 15.68953125  5.57921875 14.88140625  L 4.88546875 16.49953125  L 1.75 16.49953125  C 0.92171875 16.49953125  0.250000000000001 17.17125  0.250000000000001 17.99953125  C 0.250000000000001 18.8278125  0.921718750000001 19.49953125  1.75 19.49953125  L 5.38046875 19.49953125  C 6.2828125 19.49953125  7.09515625 18.96328125  7.448125 18.1359375  L 7.86015625 17.1740625  L 7.36 16.87875  Z M 19.75 11.9990625  C 19.75 11.17078125  19.07828125 10.49953125  18.25 10.49953125  L 16.18609375 10.49953125  L 14.96453125 8.0034375  C 14.37859375 6.80578125  13.3028125 5.93015625  12.06859375 5.615625  L 8.73671875 4.6246875  C 7.41015625 4.3059375  6.02875 4.59890625  4.94734375 5.428125  L 3.0878125 6.85359375  C 2.43015625 7.3575  2.30546875 8.29875  2.8103125 8.95640625  C 3.31515625 9.6140625  4.2559375 9.73734375  4.913125 9.23390625  L 6.77359375 7.8084375  C 7.133125 7.53234375  7.59109375 7.4334375  7.958125 7.520625  L 8.6471875 7.72546875  L 6.89125 11.821875  C 6.2996875 13.20375  6.82984375 14.82234375  8.1240625 15.58640625  L 12.1075 17.938125  L 10.81984375 22.05046875  C 10.57234375 22.84078125  11.0125 23.6821875  11.8028125 23.9296875  C 11.95234375 23.9765625  12.10328125 23.9990625  12.251875 23.9990625  C 12.88984375 23.9990625  13.48140625 23.58796875  13.6825 22.94671875  L 15.165625 18.20953125  C 15.44265625 17.2359375  15.03015625 16.19015625  14.15125 15.66  L 11.280625 13.9659375  L 12.74828125 10.2965625  L 13.6984375 12.23859375  C 14.0734375 13.00453125  14.8665625 13.4990625  15.71921875 13.4990625  L 18.25 13.4990625  C 19.07828125 13.4990625  19.75 12.82734375  19.75 11.9990625  Z " fill-rule="nonzero" fill="#ffffff" stroke="none" transform="matrix(1 0 0 1 14 12 )" />
  </g>
</svg>