<?xml version="1.0" encoding="utf-8"?>
<svg version="1.1" xmlns:xlink="http://www.w3.org/1999/xlink" width="24px" height="15px" xmlns="http://www.w3.org/2000/svg">
  <g transform="matrix(1 0 0 1 -270 -17 )">
    <path d="M 3.6875 4.53125  C 3.6875 6.16814453125  5.01935546875 7.5  6.65625 7.5  C 8.29314453125 7.5  9.625 6.16814453125  9.625 4.53125  C 9.625 2.89435546875  8.29314453125 1.5625  6.65625 1.5625  C 5.01935546875 1.5625  3.6875 2.89435546875  3.6875 4.53125  Z M 23.875 6.90625  C 23.875 4.6106640625  22.0143359375 2.75  19.71875 2.75  L 11.40625 2.75  C 11.078203125 2.75  10.8125 3.015703125  10.8125 3.34375  L 10.8125 8.6875  L 2.5 8.6875  L 2.5 0.96875  C 2.5 0.640703125  2.234296875 0.375  1.90625 0.375  L 0.71875 0.375  C 0.390703125 0.375  0.125 0.640703125  0.125 0.96875  L 0.125 14.03125  C 0.125 14.359296875  0.390703125 14.625  0.71875 14.625  L 1.90625 14.625  C 2.234296875 14.625  2.5 14.359296875  2.5 14.03125  L 2.5 12  L 21.5 12  L 21.5 14.03125  C 21.5 14.359296875  21.765703125 14.625  22.09375 14.625  L 23.28125 14.625  C 23.609296875 14.625  23.875 14.359296875  23.875 14.03125  L 23.875 6.90625  Z " fill-rule="nonzero" fill="#ffffff" stroke="none" transform="matrix(1 0 0 1 270 17 )" />
  </g>
</svg>