<?xml version="1.0" encoding="utf-8"?>
<svg version="1.1" xmlns:xlink="http://www.w3.org/1999/xlink" width="24px" height="24px" xmlns="http://www.w3.org/2000/svg">
  <g transform="matrix(1 0 0 1 -324 -12 )">
    <path d="M 23.14415625 15.317671875  C 23.291765625 14.82084375  23.07525 14.287734375  22.626375 14.0285625  L 21.09778125 13.146046875  C 21.1938750575355 12.3850214179747  21.1938750575355 11.6149317070253  21.09778125 10.85390625  L 22.626375 9.971390625  C 23.07525 9.712265625  23.291765625 9.179109375  23.14415625 8.68228125  C 22.6185 6.912796875  21.682828125 5.32003125  20.447203125 4.013765625  C 20.089359375 3.635484375  19.51828125 3.552703125  19.06734375 3.813046875  L 17.541 4.694203125  C 16.9304734723413 4.22956637883816  16.2636359355601 3.84400736940469  15.556359375 3.546703125  L 15.556359375 1.783546875  C 15.556359375 1.261828125  15.197671875 0.808359375  14.689921875 0.68821875  C 12.925359375 0.270609375  11.075015625 0.2705625  9.310078125 0.68821875  C 8.802375 0.808359375  8.443640625 1.26178125  8.443640625 1.783546875  L 8.443640625 3.546703125  C 7.7363586944479 3.8439965599463  7.06951983872856 4.22955633197704  6.459 4.694203125  L 4.93265625 3.813046875  C 4.481671875 3.552703125  3.91059375 3.635484375  3.552796875 4.013765625  C 2.317171875 5.32003125  1.3815 6.91284375  0.85584375 8.68228125  C 0.708234375 9.179109375  0.92475 9.71221875  1.373625 9.971390625  L 2.90221875 10.85390625  C 2.80612494246451 11.6149317070253  2.80612494246451 12.3850214179747  2.90221875 13.146046875  L 1.373625 14.0285625  C 0.92475 14.2876875  0.708234375 14.82084375  0.85584375 15.317671875  C 1.3815 17.087109375  2.317171875 18.679921875  3.552796875 19.9861875  C 3.910640625 20.36446875  4.48171875 20.44725  4.93265625 20.186953125  L 6.459 19.305796875  C 7.06951651481706 19.7704360667648  7.73635641579746 20.15598069314  8.443640625 20.45325  L 8.443640625 22.21640625  C 8.443640625 22.738125  8.802328125 23.19159375  9.310078125 23.311734375  C 11.0746875 23.72934375  12.924984375 23.729390625  14.689921875 23.311734375  C 15.197625 23.19159375  15.556359375 22.738171875  15.556359375 22.21640625  L 15.556359375 20.45325  C 16.2636306069284 20.155954569494  16.9304673203419 19.7704117860638  17.541 19.305796875  L 19.06734375 20.186953125  C 19.51828125 20.447296875  20.089359375 20.364515625  20.447203125 19.9861875  C 21.682828125 18.679921875  22.6185 17.087109375  23.14415625 15.317671875  Z M 21.61621875 15.1771875  C 21.18309375 16.4881875  20.480953125 17.70225  19.557046875 18.737671875  L 17.3863125 17.484234375  C 16.12125 18.5656875  15.672609375 18.837796875  14.056359375 19.408875  L 14.056359375 21.915703125  C 12.6997343400855 22.1955474175503  11.3002656599145 22.1955474175503  9.943640625 21.915703125  L 9.943640625 19.408875  C 8.36765625 18.852046875  7.911375 18.593484375  6.6136875 17.484234375  L 4.442953125 18.737671875  C 3.519046875 17.702203125  2.81690625 16.4881875  2.38378125 15.177140625  L 4.555453125 13.923703125  C 4.249125 12.26353125  4.248984375 11.737265625  4.555453125 10.07625  L 2.38378125 8.8228125  C 2.81690625 7.511765625  3.51909375 6.297703125  4.442953125 5.261765625  L 6.6136875 6.516140625  C 7.896984375 5.417671875  8.351015625 5.15371875  9.943640625 4.59103125  L 9.943640625 2.08425  C 11.3002178609423 1.80393778172911  12.6997821390577 1.80393778172911  14.056359375 2.08425  L 14.056359375 4.591078125  C 15.649078125 5.1538125  16.10315625 5.4178125  17.3863125 6.5161875  L 19.557046875 5.2618125  C 20.48090625 6.297703125  21.18309375 7.511765625  21.61621875 8.822859375  L 19.444546875 10.076296875  C 19.750921875 11.736890625  19.751015625 12.262734375  19.444546875 13.92375  L 21.61621875 15.1771875  Z M 16.5 12  C 16.5 9.518671875  14.481328125 7.5  12 7.5  C 9.518671875 7.5  7.5 9.518671875  7.5 12  C 7.5 14.481328125  9.518671875 16.5  12 16.5  C 14.481328125 16.5  16.5 14.481328125  16.5 12  Z M 15 12  C 15 13.65421875  13.65421875 15  12 15  C 10.34578125 15  9 13.65421875  9 12  C 9 10.34578125  10.34578125 9  12 9  C 13.65421875 9  15 10.34578125  15 12  Z " fill-rule="nonzero" fill="#000333" stroke="none" transform="matrix(1 0 0 1 324 12 )" />
  </g>
</svg>