<?xml version="1.0" encoding="utf-8"?>
<svg version="1.1" xmlns:xlink="http://www.w3.org/1999/xlink" width="22px" height="18px" xmlns="http://www.w3.org/2000/svg">
  <g transform="matrix(1 0 0 1 -19 -214 )">
    <path d="M 17.9342026015625 10.900087734375  C 18.2294184453125 10.46720521875  18.5169594921875 10.0406544375  18.7853375234375 9.633218671875  L 21.4928858046875 9.633218671875  L 21.4928858046875 10.900087734375  L 17.9342026015625 10.900087734375  Z M 17.8227501640625 9.6332666484375  L 14.6105840234375 9.6332666484375  L 12.4640153984375 3.0269457421875  L 10.31747075 9.6332666484375  L 10.176782140625 9.6332666484375  L 8.663648046875 4.976152171875  L 7.150442 9.6332666484375  L 3.938275859375 9.6332666484375  C 3.6324592109375 9.1684378125  3.349499046875 8.72802440625  3.10165109375 8.331381328125  C 2.4219279453125 7.4689980234375  2.0129812109375 6.3830143125  2.0129812109375 5.1995127421875  C 2.0129812109375 2.4009221953125  4.2815791015625 0.132468187499999  7.080145671875 0.132468187499999  C 8.5956061953125 0.132468187499999  9.951982578125 0.801350695312499  10.8805130234375 1.85579578125  C 11.809115421875 0.801350695312499  13.1654198515625 0.1324681875  14.6809043515625 0.1324681875  C 17.4794469453125 0.1324681875  19.7480688125 2.400922171875  19.7480688125 5.1995127421875  C 19.7480688125 6.3829903359375  19.3390981015625 7.4690220234375  18.659374953125 8.331381328125  C 18.4115269765625 8.72802440625  18.128542859375 9.1684138125  17.8227501640625 9.6332666484375  Z M 3.8267754453125 10.900087734375  L 0.507114171875 10.900087734375  L 0.507114171875 9.633218671875  L 2.9756405234375 9.633218671875  C 3.24406653125 10.0406544375  3.531607578125 10.46722921875  3.8267754453125 10.900087734375  Z M 8.070794 10.900087734375  L 8.6636240703125 9.0755967421875  L 10.2471264453125 13.9492124296875  L 12.463991421875 7.1263423359375  L 13.6901600703125 10.9000637578125  L 16.9720469609375 10.9000637578125  C 14.7683730546875 14.12391  10.880489046875 17.8675557890625  10.880489046875 17.8675557890625  C 10.880489046875 17.8675557890625  6.9926050390625 14.123933953125  4.7889311328125 10.9001357109375  L 8.070770046875 10.9001357109375  Z " fill-rule="nonzero" fill="#00ccaa" stroke="none" transform="matrix(1 0 0 1 19 214 )" />
  </g>
</svg>