<?xml version="1.0" encoding="utf-8"?>
<svg version="1.1" xmlns:xlink="http://www.w3.org/1999/xlink" width="24px" height="24px" xmlns="http://www.w3.org/2000/svg">
  <g transform="matrix(1 0 0 1 -276 -12 )">
    <path d="M 17.6129032258065 11.1290322580645  C 17.9322580645161 11.1290322580645  18.1935483870968 11.3903225806452  18.1935483870968 11.7096774193548  L 18.1935483870968 12.2903225806452  C 18.1935483870968 12.6096774193548  17.9322580645161 12.8709677419355  17.6129032258065 12.8709677419355  L 12.8709677419355 12.8709677419355  L 12.8709677419355 17.6129032258065  C 12.8709677419355 17.9322580645161  12.6096774193548 18.1935483870968  12.2903225806452 18.1935483870968  L 11.7096774193548 18.1935483870968  C 11.3903225806452 18.1935483870968  11.1290322580645 17.9322580645161  11.1290322580645 17.6129032258065  L 11.1290322580645 12.8709677419355  L 6.38709677419355 12.8709677419355  C 6.06774193548387 12.8709677419355  5.80645161290323 12.6096774193548  5.80645161290323 12.2903225806452  L 5.80645161290323 11.7096774193548  C 5.80645161290323 11.3903225806452  6.06774193548387 11.1290322580645  6.38709677419355 11.1290322580645  L 11.1290322580645 11.1290322580645  L 11.1290322580645 6.38709677419355  C 11.1290322580645 6.06774193548387  11.3903225806452 5.80645161290323  11.7096774193548 5.80645161290323  L 12.2903225806452 5.80645161290323  C 12.6096774193548 5.80645161290323  12.8709677419355 6.06774193548387  12.8709677419355 6.38709677419355  L 12.8709677419355 11.1290322580645  L 17.6129032258065 11.1290322580645  Z M 12 0  C 18.6290322580645 0  24 5.37096774193548  24 12  C 24 18.6290322580645  18.6290322580645 24  12 24  C 5.37096774193548 24  0 18.6290322580645  0 12  C 0 5.37096774193548  5.37096774193548 0  12 0  Z M 12 22.4516129032258  C 17.8016129032258 22.4516129032258  22.4516129032258 17.7435483870968  22.4516129032258 12  C 22.4516129032258 6.19838709677419  17.7435483870968 1.54838709677419  12 1.54838709677419  C 6.19838709677419 1.54838709677419  1.54838709677419 6.25645161290323  1.54838709677419 12  C 1.54838709677419 17.8016129032258  6.25645161290323 22.4516129032258  12 22.4516129032258  Z " fill-rule="nonzero" fill="#333333" stroke="none" transform="matrix(1 0 0 1 276 12 )" />
  </g>
</svg>