<?xml version="1.0" encoding="utf-8"?>
<svg version="1.1" xmlns:xlink="http://www.w3.org/1999/xlink" width="21px" height="24px" xmlns="http://www.w3.org/2000/svg">
  <g transform="matrix(1 0 0 1 -318 -250 )">
    <path d="M 21 19.8  C 21 16.321875  18.178125 13.5  14.7 13.5  C 13.3546875 13.5  12.7078125 14.25  10.5 14.25  C 8.2921875 14.25  7.65 13.5  6.3 13.5  C 2.821875 13.5  0 16.321875  0 19.8  L 0 21.75  C 0 22.9921875  1.0078125 24  2.25 24  L 18.75 24  C 19.9921875 24  21 22.9921875  21 21.75  L 21 19.8  Z M 19.5 19.8  L 19.5 21.75  C 19.5 22.1625  19.1625 22.5  18.75 22.5  L 2.25 22.5  C 1.8375 22.5  1.5 22.1625  1.5 21.75  L 1.5 19.8  C 1.5 17.1515625  3.6515625 15  6.3 15  C 7.21875 15  8.1328125 15.75  10.5 15.75  C 12.8625 15.75  13.78125 15  14.7 15  C 17.3484375 15  19.5 17.1515625  19.5 19.8  Z M 4.5 6  C 4.5 9.3140625  7.1859375 12  10.5 12  C 13.8140625 12  16.5 9.3140625  16.5 6  C 16.5 2.6859375  13.8140625 0  10.5 0  C 7.1859375 0  4.5 2.6859375  4.5 6  Z M 6 6  C 6 3.5203125  8.0203125 1.5  10.5 1.5  C 12.9796875 1.5  15 3.5203125  15 6  C 15 8.4796875  12.9796875 10.5  10.5 10.5  C 8.0203125 10.5  6 8.4796875  6 6  Z " fill-rule="nonzero" fill="#ffffff" stroke="none" transform="matrix(1 0 0 1 318 250 )" />
  </g>
</svg>