<?xml version="1.0" encoding="utf-8"?>
<svg version="1.1" xmlns:xlink="http://www.w3.org/1999/xlink" width="24px" height="24px" xmlns="http://www.w3.org/2000/svg">
  <g transform="matrix(1 0 0 1 -324 -12 )">
    <path d="M 24 12  C 24 5.37321428571429  18.6267857142857 0  12 0  C 5.37321428571429 0  0 5.37321428571429  0 12  C 0 18.6267857142857  5.37321428571429 24  12 24  C 18.6267857142857 24  24 18.6267857142857  24 12  Z M 21.9642857142857 12  C 21.9642857142857 17.5017857142857  17.5017857142857 21.9642857142857  12 21.9642857142857  C 6.49821428571429 21.9642857142857  2.03571428571429 17.5017857142857  2.03571428571429 12  C 2.03571428571429 6.49821428571429  6.49821428571429 2.03571428571429  12 2.03571428571429  C 17.5017857142857 2.03571428571429  21.9642857142857 6.49821428571429  21.9642857142857 12  Z " fill-rule="nonzero" fill="#333333" stroke="none" transform="matrix(1 0 0 1 324 12 )" />
  </g>
</svg>